<svg class="animated" id="freepik_stories-product-hunt" xmlns="http://www.w3.org/2000/svg" viewBox="0 0 500 500" version="1.1" xmlns:xlink="http://www.w3.org/1999/xlink" xmlns:svgjs="http://svgjs.com/svgjs"><style>svg#freepik_stories-product-hunt:not(.animated) .animable {opacity: 0;}svg#freepik_stories-product-hunt.animated #freepik--Floor--inject-1--inject-68 {animation: 1s 1 forwards cubic-bezier(.36,-0.01,.5,1.38) lightSpeedLeft;animation-delay: 0s;}svg#freepik_stories-product-hunt.animated #freepik--Shadow--inject-1--inject-68 {animation: 1s 1 forwards cubic-bezier(.36,-0.01,.5,1.38) lightSpeedLeft;animation-delay: 0s;}svg#freepik_stories-product-hunt.animated #freepik--Shelves--inject-1--inject-68 {animation: 1s 1 forwards cubic-bezier(.36,-0.01,.5,1.38) slideRight;animation-delay: 0s;}svg#freepik_stories-product-hunt.animated #freepik--Characters--inject-1--inject-68 {animation: 1s 1 forwards cubic-bezier(.36,-0.01,.5,1.38) zoomIn;animation-delay: 0s;}svg#freepik_stories-product-hunt.animated #freepik--speach-bubble--inject-1--inject-68 {animation: 1s 1 forwards cubic-bezier(.36,-0.01,.5,1.38) slideLeft,1.5s Infinite  linear floating;animation-delay: 0s,1s;}            @keyframes lightSpeedLeft {              from {                transform: translate3d(-50%, 0, 0) skewX(20deg);                opacity: 0;              }              60% {                transform: skewX(-10deg);                opacity: 1;              }              80% {                transform: skewX(2deg);              }              to {                opacity: 1;                transform: translate3d(0, 0, 0);              }            }                    @keyframes slideRight {                0% {                    opacity: 0;                    transform: translateX(30px);                }                100% {                    opacity: 1;                    transform: translateX(0);                }            }                    @keyframes zoomIn {                0% {                    opacity: 0;                    transform: scale(0.5);                }                100% {                    opacity: 1;                    transform: scale(1);                }            }                    @keyframes slideLeft {                0% {                    opacity: 0;                    transform: translateX(-30px);                }                100% {                    opacity: 1;                    transform: translateX(0);                }            }                    @keyframes floating {                0% {                    opacity: 1;                    transform: translateY(0px);                }                50% {                    transform: translateY(-10px);                }                100% {                    opacity: 1;                    transform: translateY(0px);                }            }        </style><g id="freepik--Floor--inject-1--inject-68" class="animable" style="transform-origin: 249.7px 361.53px;"><ellipse cx="249.7" cy="361.53" rx="201.96" ry="116.6" style="fill: rgb(245, 245, 245); transform-origin: 249.7px 361.53px;" id="elife8gr8k55i" class="animable"></ellipse></g><g id="freepik--Shadow--inject-1--inject-68" class="animable" style="transform-origin: 246.556px 376.982px;"><path d="M300.91,435.73l50.22-29c6.07-3.5,6.07-9.19,0-12.69l-84.61-48.85c-6.07-3.51-15.92-3.51-22,0l-50.22,29c-6.08,3.51-6.08,9.19,0,12.7l84.6,48.85C285,439.24,294.83,439.24,300.91,435.73Z" style="fill: rgb(224, 224, 224); transform-origin: 272.711px 390.461px;" id="el2b18f19mtvc" class="animable"></path><ellipse cx="189.75" cy="345.81" rx="52.32" ry="30.21" style="fill: rgb(224, 224, 224); transform-origin: 189.75px 345.81px;" id="eln31ot38qi4d" class="animable"></ellipse></g><g id="freepik--Shelves--inject-1--inject-68" class="animable" style="transform-origin: 242.535px 124.88px;"><g id="freepik--Bottles--inject-1--inject-68" class="animable" style="transform-origin: 401.69px 104.57px;"><path d="M346.31,107.13v-4.5h0a1.57,1.57,0,0,1,.9-1.2l27.05-15.62a4.62,4.62,0,0,1,4.16,0l77.76,44.9a1.51,1.51,0,0,1,.89,1.2h0v4.5h0a1.51,1.51,0,0,1-.89,1.2l-27.05,15.62a4.62,4.62,0,0,1-4.16,0l-77.76-44.9a1.55,1.55,0,0,1-.9-1.2Z" style="fill: rgb(240, 240, 240); transform-origin: 401.69px 119.52px;" id="elmhjikbybbl" class="animable"></path><path d="M456.18,133.11l-27.05,15.61a4.56,4.56,0,0,1-4.16,0l-77.76-44.89a1.27,1.27,0,0,1,0-2.4l27.05-15.62a4.62,4.62,0,0,1,4.16,0l77.76,44.9A1.27,1.27,0,0,1,456.18,133.11Z" style="fill: rgb(250, 250, 250); transform-origin: 401.695px 117.269px;" id="elpjfu2z1zrr" class="animable"></path><path d="M427.05,149.23v4.5a4.29,4.29,0,0,0,2.08-.5l27.05-15.61a1.54,1.54,0,0,0,.89-1.21h0v-4.5h0a1,1,0,0,0-.17-.51c.32.58.08,1.25-.72,1.71l-27.05,15.62A4.27,4.27,0,0,1,427.05,149.23Z" style="fill: rgb(224, 224, 224); transform-origin: 442.06px 142.565px;" id="elqeryhocv9xr" class="animable"></path><g id="el11mdedu2pwpn"><path d="M381.55,106.19c4.13-2.36,4.13-6.19,0-8.55a16.69,16.69,0,0,0-15,0c-4.13,2.36-4.13,6.19,0,8.55A16.69,16.69,0,0,0,381.55,106.19Z" style="opacity: 0.03; transform-origin: 374.05px 101.915px;" class="animable"></path></g><path d="M366.19,69.52a12.59,12.59,0,0,1,1.38-.66,2.32,2.32,0,0,0,1.49-2.16V62.81h8.61V66.7a2.32,2.32,0,0,0,1.49,2.16,12.59,12.59,0,0,1,1.38.66,6.13,6.13,0,0,1,3,4.89V100.6c0,1.5-1,3-3,4.14a15.85,15.85,0,0,1-14.35,0c-2-1.14-3-2.64-3-4.14V74.41A6.13,6.13,0,0,1,366.19,69.52Z" style="fill: rgb(240, 240, 240); transform-origin: 373.365px 84.6335px;" id="el77pej4x26pf" class="animable"></path><path d="M366.19,79.78a15.93,15.93,0,0,0,14.33,0c2-1.13,3-2.61,3-4.09V94.26c0,1.48-1,3-3,4.09a15.93,15.93,0,0,1-14.33,0c-2-1.13-3-2.61-3-4.09V75.69C363.22,77.17,364.21,78.65,366.19,79.78Z" style="fill: rgb(224, 224, 224); transform-origin: 373.355px 87.8712px;" id="el9jczsl8boy5" class="animable"></path><g id="el6mpu7r1f1pw"><path d="M380.24,100.66V75c0-1.25-.27-2.93-1.76-3.69-3-1.51-3.35-2.72-3.35-4.25V62.81h2.54V66.7a2.32,2.32,0,0,0,1.49,2.16,12.59,12.59,0,0,1,1.38.66,6.13,6.13,0,0,1,3,4.89V100.6c0,1.5-1,3-3,4.14A15.92,15.92,0,0,1,370,106.12C378.24,106.69,380.24,103.19,380.24,100.66Z" style="fill: rgb(235, 235, 235); opacity: 0.3; mix-blend-mode: multiply; transform-origin: 376.77px 84.6402px;" class="animable"></path></g><path d="M368.8,61.65V62.8a2.32,2.32,0,0,0,1.36,1.91,7.31,7.31,0,0,0,6.57,0,3.37,3.37,0,0,0,1-.89,1.78,1.78,0,0,0,.34-1V61.65a1.17,1.17,0,0,0,0-.32,2.45,2.45,0,0,0-1.32-1.58l-.07,0a7.29,7.29,0,0,0-6.5,0,2.48,2.48,0,0,0-1.32,1.58A1.22,1.22,0,0,0,368.8,61.65Z" style="fill: rgb(230, 230, 230); transform-origin: 373.44px 62.2376px;" id="elforr5779if9" class="animable"></path><path d="M376.73,63.54c1.81-1,1.81-2.74,0-3.79a7.25,7.25,0,0,0-6.57,0c-1.81,1-1.81,2.74,0,3.79A7.25,7.25,0,0,0,376.73,63.54Z" style="fill: rgb(224, 224, 224); transform-origin: 373.445px 61.645px;" id="elxd3wtwcbnwh" class="animable"></path><path d="M368.8,58.1V61a1.22,1.22,0,0,0,0,.32,2.48,2.48,0,0,0,1.32,1.58,6.38,6.38,0,0,0,2.91.77,6.81,6.81,0,0,0,3.66-.77,3.12,3.12,0,0,0,1-.89,1.75,1.75,0,0,0,.3-.69,1.1,1.1,0,0,0,0-.31V58.09a2.28,2.28,0,0,0-1.36-1.89l-.25-.13a7.29,7.29,0,0,0-6.32.13A2.3,2.3,0,0,0,368.8,58.1Z" style="fill: rgb(230, 230, 230); transform-origin: 373.395px 59.5499px;" id="eltvmj529j1tg" class="animable"></path><path d="M368.8,58.08c0,1.47,2.08,2.67,4.64,2.67s4.65-1.2,4.65-2.67-2.08-2.67-4.65-2.67S368.8,56.61,368.8,58.08Z" style="fill: rgb(245, 245, 245); transform-origin: 373.445px 58.08px;" id="elp99blix78e" class="animable"></path><g id="ellqrnlby1iyk"><path d="M400.36,116.87c4.13-2.36,4.13-6.19,0-8.55a16.69,16.69,0,0,0-15,0c-4.13,2.36-4.13,6.19,0,8.55A16.69,16.69,0,0,0,400.36,116.87Z" style="opacity: 0.03; transform-origin: 392.86px 112.595px;" class="animable"></path></g><path d="M385,80.21a11.6,11.6,0,0,1,1.37-.67,2.32,2.32,0,0,0,1.49-2.15v-3.9h8.61v3.9A2.32,2.32,0,0,0,398,79.54a11,11,0,0,1,1.38.67,6.1,6.1,0,0,1,3,4.88v26.19c0,1.5-1,3-3,4.14a15.82,15.82,0,0,1-14.34,0c-2-1.14-3-2.64-3-4.14V85.09A6.09,6.09,0,0,1,385,80.21Z" style="fill: rgb(240, 240, 240); transform-origin: 392.21px 95.314px;" id="eli9zgq6xiik" class="animable"></path><path d="M385,90.46a16,16,0,0,0,14.34,0c2-1.13,3-2.61,3-4.09v18.57c0,1.48-1,3-3,4.1A16,16,0,0,1,385,109c-2-1.14-3-2.62-3-4.1V86.37C382,87.85,383,89.33,385,90.46Z" style="fill: rgb(224, 224, 224); transform-origin: 392.17px 98.5433px;" id="el4aaty76dk16" class="animable"></path><g id="eloloduwg6agj"><path d="M399.05,111.34V85.7c0-1.25-.26-2.93-1.75-3.69-3-1.5-3.36-2.72-3.36-4.25V73.49h2.54v3.9A2.32,2.32,0,0,0,398,79.54a11,11,0,0,1,1.38.67,6.1,6.1,0,0,1,3,4.88v26.19c0,1.5-1,3-3,4.14a15.86,15.86,0,0,1-10.54,1.38C397.06,117.37,399.05,113.87,399.05,111.34Z" style="fill: rgb(235, 235, 235); opacity: 0.3; mix-blend-mode: multiply; transform-origin: 395.61px 95.3218px;" class="animable"></path></g><path d="M387.61,72.34v1.15a2.32,2.32,0,0,0,1.37,1.9,7.29,7.29,0,0,0,6.56,0,3.24,3.24,0,0,0,1-.89,1.7,1.7,0,0,0,.34-1V72.33a1.06,1.06,0,0,0,0-.31,2.45,2.45,0,0,0-1.32-1.59l-.07,0a7.26,7.26,0,0,0-6.49,0A2.47,2.47,0,0,0,387.65,72,1.24,1.24,0,0,0,387.61,72.34Z" style="fill: rgb(230, 230, 230); transform-origin: 392.251px 72.917px;" id="el8o600h1qm7a" class="animable"></path><path d="M395.54,74.22c1.81-1,1.81-2.74,0-3.79a7.25,7.25,0,0,0-6.57,0c-1.81,1-1.81,2.74,0,3.79A7.25,7.25,0,0,0,395.54,74.22Z" style="fill: rgb(224, 224, 224); transform-origin: 392.255px 72.325px;" id="ell9tctfcn47j" class="animable"></path><path d="M387.61,68.78v2.91a1.17,1.17,0,0,0,0,.32A2.47,2.47,0,0,0,389,73.59a6.34,6.34,0,0,0,2.9.77,6.79,6.79,0,0,0,3.66-.77,3.22,3.22,0,0,0,1-.88,1.73,1.73,0,0,0,.3-.69,1.22,1.22,0,0,0,0-.32V68.78a2.3,2.3,0,0,0-1.36-1.9l-.25-.13a7.27,7.27,0,0,0-6.31.13A2.3,2.3,0,0,0,387.61,68.78Z" style="fill: rgb(230, 230, 230); transform-origin: 392.235px 70.2352px;" id="elqso3p86dsr" class="animable"></path><ellipse cx="392.26" cy="68.76" rx="4.64" ry="2.67" style="fill: rgb(245, 245, 245); transform-origin: 392.26px 68.76px;" id="eleefb9c2lfev" class="animable"></ellipse><g id="el8dw0224p98y"><path d="M419.17,127.55c4.14-2.36,4.14-6.19,0-8.55a16.69,16.69,0,0,0-15,0c-4.13,2.36-4.13,6.19,0,8.55A16.63,16.63,0,0,0,419.17,127.55Z" style="opacity: 0.03; transform-origin: 411.674px 123.279px;" class="animable"></path></g><path d="M403.82,90.89a10.19,10.19,0,0,1,1.37-.66,2.35,2.35,0,0,0,1.5-2.16v-3.9h8.6v3.9a2.33,2.33,0,0,0,1.5,2.16,10.19,10.19,0,0,1,1.37.66,6.1,6.1,0,0,1,3,4.88V122c0,1.5-1,3-3,4.14a15.82,15.82,0,0,1-14.34,0c-2-1.14-3-2.64-3-4.14V95.77A6.1,6.1,0,0,1,403.82,90.89Z" style="fill: rgb(240, 240, 240); transform-origin: 410.99px 106.014px;" id="eljv8pga56ysp" class="animable"></path><path d="M403.82,101.15a16,16,0,0,0,14.33,0c2-1.14,3-2.62,3-4.1v18.57c0,1.48-1,3-3,4.1a16,16,0,0,1-14.33,0c-2-1.13-3-2.62-3-4.1V97.05C400.85,98.53,401.84,100,403.82,101.15Z" style="fill: rgb(224, 224, 224); transform-origin: 410.985px 109.232px;" id="eltv8hza8t7ke" class="animable"></path><g id="el9rplq8051sk"><path d="M417.86,122V96.38c0-1.24-.26-2.93-1.75-3.69-3-1.5-3.35-2.72-3.35-4.25V84.17h2.53v3.9a2.33,2.33,0,0,0,1.5,2.16,10.19,10.19,0,0,1,1.37.66,6.1,6.1,0,0,1,3,4.88V122c0,1.5-1,3-3,4.14a15.84,15.84,0,0,1-10.53,1.38C415.87,128.05,417.86,124.55,417.86,122Z" style="fill: rgb(235, 235, 235); opacity: 0.3; mix-blend-mode: multiply; transform-origin: 414.395px 106.022px;" class="animable"></path></g><path d="M406.43,83v1.15a2.3,2.3,0,0,0,1.36,1.9,7.29,7.29,0,0,0,6.56,0,3.13,3.13,0,0,0,1-.89,1.7,1.7,0,0,0,.34-1V83a1.06,1.06,0,0,0,0-.31,2.47,2.47,0,0,0-1.32-1.59l-.06,0a7.32,7.32,0,0,0-6.5,0,2.53,2.53,0,0,0-1.33,1.58A1.84,1.84,0,0,0,406.43,83Z" style="fill: rgb(230, 230, 230); transform-origin: 411.066px 83.5843px;" id="el6f39c7ec0d8" class="animable"></path><path d="M414.35,84.9c1.81-1,1.81-2.74,0-3.79a7.29,7.29,0,0,0-6.56,0c-1.82,1-1.82,2.75,0,3.79A7.22,7.22,0,0,0,414.35,84.9Z" style="fill: rgb(224, 224, 224); transform-origin: 411.066px 83.0092px;" id="el4v3revjzp54" class="animable"></path><path d="M406.43,79.47v2.9a1.73,1.73,0,0,0,0,.32,2.5,2.5,0,0,0,1.33,1.58,6.51,6.51,0,0,0,2.9.78,6.88,6.88,0,0,0,3.66-.78,3.22,3.22,0,0,0,1-.88,1.67,1.67,0,0,0,.3-.69,1.17,1.17,0,0,0,0-.32V79.46a2.3,2.3,0,0,0-1.36-1.9l-.24-.13a7.29,7.29,0,0,0-6.32.13A2.3,2.3,0,0,0,406.43,79.47Z" style="fill: rgb(230, 230, 230); transform-origin: 411.027px 80.9188px;" id="elbpvcbyvcjk6" class="animable"></path><ellipse cx="411.07" cy="79.44" rx="4.64" ry="2.67" style="fill: rgb(245, 245, 245); transform-origin: 411.07px 79.44px;" id="el9sb9fct1baj" class="animable"></ellipse><g id="elfsronz59rw"><path d="M438,138.23c4.13-2.36,4.13-6.19,0-8.55a16.69,16.69,0,0,0-15,0c-4.14,2.36-4.14,6.19,0,8.55A16.63,16.63,0,0,0,438,138.23Z" style="opacity: 0.03; transform-origin: 430.496px 133.959px;" class="animable"></path></g><path d="M422.63,101.57a10.19,10.19,0,0,1,1.37-.66,2.33,2.33,0,0,0,1.5-2.16v-3.9h8.6v3.9a2.35,2.35,0,0,0,1.5,2.16,10.19,10.19,0,0,1,1.37.66,6.1,6.1,0,0,1,3,4.88v26.19c0,1.5-1,3-3,4.14a15.82,15.82,0,0,1-14.34,0c-2-1.14-3-2.64-3-4.14V106.45A6.1,6.1,0,0,1,422.63,101.57Z" style="fill: rgb(240, 240, 240); transform-origin: 429.8px 116.674px;" id="ele4mfqdtkxre" class="animable"></path><path d="M422.63,111.83a16,16,0,0,0,14.33,0c2-1.13,3-2.62,3-4.1V126.3c0,1.48-1,3-3,4.1a16,16,0,0,1-14.33,0c-2-1.13-3-2.62-3-4.1V107.73C419.66,109.21,420.65,110.7,422.63,111.83Z" style="fill: rgb(224, 224, 224); transform-origin: 429.795px 119.912px;" id="el89we32glicx" class="animable"></path><g id="elayltmebvdqp"><path d="M436.67,132.7V107.06c0-1.24-.26-2.93-1.75-3.68-3-1.51-3.35-2.73-3.35-4.26V94.85h2.53v3.9a2.35,2.35,0,0,0,1.5,2.16,10.19,10.19,0,0,1,1.37.66,6.1,6.1,0,0,1,3,4.88v26.19c0,1.5-1,3-3,4.14a15.84,15.84,0,0,1-10.53,1.38C434.68,138.73,436.67,135.23,436.67,132.7Z" style="fill: rgb(235, 235, 235); opacity: 0.3; mix-blend-mode: multiply; transform-origin: 433.205px 116.682px;" class="animable"></path></g><path d="M425.24,93.7v1.15a2.3,2.3,0,0,0,1.36,1.9,7.31,7.31,0,0,0,6.57,0,3.12,3.12,0,0,0,1-.89,1.76,1.76,0,0,0,.33-1V93.69a1.63,1.63,0,0,0,0-.31,2.53,2.53,0,0,0-1.32-1.59l-.07,0a7.29,7.29,0,0,0-6.5,0,2.48,2.48,0,0,0-1.32,1.58A1.24,1.24,0,0,0,425.24,93.7Z" style="fill: rgb(230, 230, 230); transform-origin: 429.874px 94.2776px;" id="elgrwxcxutwxc" class="animable"></path><ellipse cx="429.88" cy="93.69" rx="4.64" ry="2.68" style="fill: rgb(224, 224, 224); transform-origin: 429.88px 93.69px;" id="elfj9l5tjjbk" class="animable"></ellipse><path d="M425.24,90.15v2.9a1.12,1.12,0,0,0,0,.32A2.49,2.49,0,0,0,426.6,95a6.63,6.63,0,0,0,2.9.77,6.94,6.94,0,0,0,3.67-.78,3.22,3.22,0,0,0,1-.88,2,2,0,0,0,.3-.69,1.73,1.73,0,0,0,0-.32V90.14a2.3,2.3,0,0,0-1.35-1.9l-.25-.13a7.29,7.29,0,0,0-6.32.13A2.3,2.3,0,0,0,425.24,90.15Z" style="fill: rgb(230, 230, 230); transform-origin: 429.853px 91.6186px;" id="elmol669p1o4" class="animable"></path><path d="M425.24,90.12c0,1.48,2.08,2.67,4.64,2.67s4.64-1.19,4.64-2.67-2.08-2.66-4.64-2.66S425.24,88.65,425.24,90.12Z" style="fill: rgb(245, 245, 245); transform-origin: 429.88px 90.125px;" id="elleh9wer42pc" class="animable"></path></g><g id="freepik--Cans--inject-1--inject-68" class="animable" style="transform-origin: 83.43px 93.0803px;"><path d="M138.8,87.57v-4.5h0a1.57,1.57,0,0,0-.9-1.2L110.85,66.25a4.62,4.62,0,0,0-4.16,0l-77.76,44.9a1.51,1.51,0,0,0-.89,1.2h0v4.5h0a1.51,1.51,0,0,0,.89,1.2L56,133.67a4.62,4.62,0,0,0,4.16,0l77.76-44.9a1.55,1.55,0,0,0,.9-1.2Z" style="fill: rgb(240, 240, 240); transform-origin: 83.43px 99.96px;" id="elanelbo2gm1r" class="animable"></path><path d="M28.93,113.55,56,129.16a4.56,4.56,0,0,0,4.16,0L137.9,84.27a1.27,1.27,0,0,0,0-2.4L110.85,66.25a4.62,4.62,0,0,0-4.16,0l-77.76,44.9A1.27,1.27,0,0,0,28.93,113.55Z" style="fill: rgb(250, 250, 250); transform-origin: 83.415px 97.7087px;" id="elbstko9h2o9" class="animable"></path><path d="M58.06,129.67v4.5a4.29,4.29,0,0,1-2.08-.5l-27-15.61a1.52,1.52,0,0,1-.89-1.21h0v-4.5h0a1,1,0,0,1,.17-.51c-.32.58-.08,1.25.72,1.71L56,129.17A4.27,4.27,0,0,0,58.06,129.67Z" style="fill: rgb(224, 224, 224); transform-origin: 43.075px 123.005px;" id="elen8sdipp3jf" class="animable"></path><g id="elbocbiadopf5"><ellipse cx="112.14" cy="79.61" rx="12.67" ry="7.32" style="opacity: 0.03; transform-origin: 112.14px 79.61px;" class="animable"></ellipse></g><path d="M124.1,79.53h0V58.17H102.72V79.53h0c-.09,1.65,1,3.31,3.12,4.57a16.73,16.73,0,0,0,15.13,0C123.16,82.84,124.19,81.18,124.1,79.53Z" style="fill: rgb(235, 235, 235); transform-origin: 113.41px 72.039px;" id="elnj3cxxl2p0d" class="animable"></path><ellipse cx="113.42" cy="58.17" rx="10.7" ry="6.18" style="fill: rgb(250, 250, 250); transform-origin: 113.42px 58.17px;" id="els0tw9xqekdk" class="animable"></ellipse><path d="M106.31,62.18a16,16,0,0,0,14.21,0c3.92-2.21,3.92-5.8,0-8a16.06,16.06,0,0,0-14.21,0C102.39,56.38,102.39,60,106.31,62.18Z" style="fill: rgb(235, 235, 235); transform-origin: 113.415px 58.1835px;" id="elwuot2spas" class="animable"></path><path d="M120.52,55.2a16,16,0,0,0-14.21,0,5.28,5.28,0,0,0-2.9,3.49,5.24,5.24,0,0,0,2.9,3.49,16,16,0,0,0,14.21,0,5.21,5.21,0,0,0,2.9-3.49A5.25,5.25,0,0,0,120.52,55.2Z" style="fill: rgb(245, 245, 245); transform-origin: 113.415px 58.69px;" id="el48xdkqpsjxa" class="animable"></path><path d="M102.72,75.92c0,1.59,1,3.19,3.13,4.4a16.67,16.67,0,0,0,15.13,0c2.09-1.2,3.13-2.78,3.13-4.36V61.65c0,1.58-1,3.17-3.13,4.37a16.73,16.73,0,0,1-15.13,0c-2.1-1.21-3.15-2.81-3.13-4.4Z" style="fill: rgb(224, 224, 224); transform-origin: 113.415px 71.8777px;" id="elwfs36vbt9c" class="animable"></path><g id="elh49tivi94c"><path d="M117.8,85.36c-3.94,1-8.72.61-12-1.27-2.17-1.25-3.2-2.91-3.12-4.56h0V58.17c0,1.58,1,3.17,3.13,4.37a8.41,8.41,0,0,0,1,.52V82.14C106.89,83.92,112.85,86,117.8,85.36Z" style="opacity: 0.05; transform-origin: 110.238px 72.0325px;" class="animable"></path></g><path d="M115.86,62l-1.14-.65c-.92-.53-1.16-1.25-.55-1.61A3.19,3.19,0,0,1,117,60l1.13.65c.92.53,1.17,1.25.55,1.61A3.2,3.2,0,0,1,115.86,62Z" style="fill: rgb(224, 224, 224); transform-origin: 116.427px 60.9983px;" id="elbvrl8je88ja" class="animable"></path><path d="M114.67,60.71a1.38,1.38,0,0,0,1.22,0,.37.37,0,0,0,0-.7,1.32,1.32,0,0,0-1.22,0A.37.37,0,0,0,114.67,60.71Z" style="fill: rgb(245, 245, 245); transform-origin: 115.28px 60.3564px;" id="elkw4jjrikpxb" class="animable"></path><path d="M116.92,61.93a1.38,1.38,0,0,0,1.22,0,.37.37,0,0,0,0-.71,1.38,1.38,0,0,0-1.22,0A.37.37,0,0,0,116.92,61.93Z" style="fill: rgb(245, 245, 245); transform-origin: 117.53px 61.575px;" id="eld2olj6un4ej" class="animable"></path><g id="ely0pr1npy7rg"><ellipse cx="92.63" cy="90.85" rx="12.67" ry="7.32" style="opacity: 0.03; transform-origin: 92.63px 90.85px;" class="animable"></ellipse></g><path d="M104.59,90.78h0V69.41H83.21V90.78h0c-.09,1.64.94,3.3,3.12,4.56a16.73,16.73,0,0,0,15.13,0C103.64,94.08,104.68,92.42,104.59,90.78Z" style="fill: rgb(235, 235, 235); transform-origin: 93.9px 83.279px;" id="eltrxvdvha0p9" class="animable"></path><path d="M86.34,73.78a16.73,16.73,0,0,0,15.13,0c4.18-2.41,4.18-6.32,0-8.73a16.73,16.73,0,0,0-15.13,0C82.16,67.46,82.16,71.37,86.34,73.78Z" style="fill: rgb(250, 250, 250); transform-origin: 93.905px 69.415px;" id="ell4e081afzp8" class="animable"></path><ellipse cx="93.9" cy="69.41" rx="10.04" ry="5.67" style="fill: rgb(235, 235, 235); transform-origin: 93.9px 69.41px;" id="ellyrs9hrv0b" class="animable"></ellipse><path d="M101,66.44a16.06,16.06,0,0,0-14.21,0,5.25,5.25,0,0,0-2.9,3.49,5.24,5.24,0,0,0,2.9,3.5,16.06,16.06,0,0,0,14.21,0,5.23,5.23,0,0,0,2.89-3.5A5.23,5.23,0,0,0,101,66.44Z" style="fill: rgb(245, 245, 245); transform-origin: 93.89px 69.935px;" id="els91pedhacl" class="animable"></path><path d="M83.21,87.17c0,1.59,1,3.18,3.13,4.4a16.73,16.73,0,0,0,15.13,0c2.09-1.21,3.13-2.79,3.13-4.37V72.9c0,1.58-1,3.16-3.13,4.36a16.67,16.67,0,0,1-15.13,0c-2.1-1.21-3.15-2.8-3.13-4.4Z" style="fill: rgb(224, 224, 224); transform-origin: 93.9049px 83.119px;" id="elya4gon8f4z9" class="animable"></path><g id="el45kk28wzbk9"><path d="M98.28,96.6c-3.93,1-8.71.61-11.94-1.26-2.17-1.25-3.21-2.91-3.12-4.57h0V69.41c0,1.59,1,3.17,3.14,4.38a9.85,9.85,0,0,0,1,.51V93.38C87.37,95.16,93.34,97.29,98.28,96.6Z" style="opacity: 0.05; transform-origin: 90.7473px 83.2727px;" class="animable"></path></g><path d="M96.35,73.22l-1.14-.65C94.29,72,94,71.32,94.66,71a3.22,3.22,0,0,1,2.79.32l1.13.65c.92.54,1.17,1.26.55,1.61A3.17,3.17,0,0,1,96.35,73.22Z" style="fill: rgb(224, 224, 224); transform-origin: 96.8862px 72.2845px;" id="eld1mq0gh5dkc" class="animable"></path><path d="M95.16,72a1.32,1.32,0,0,0,1.22,0,.37.37,0,0,0,0-.7,1.32,1.32,0,0,0-1.22,0A.37.37,0,0,0,95.16,72Z" style="fill: rgb(245, 245, 245); transform-origin: 95.77px 71.65px;" id="elknvh3vhm5yb" class="animable"></path><path d="M97.41,73.17a1.38,1.38,0,0,0,1.22,0,.38.38,0,0,0,0-.71,1.38,1.38,0,0,0-1.22,0A.37.37,0,0,0,97.41,73.17Z" style="fill: rgb(245, 245, 245); transform-origin: 98.0094px 72.815px;" id="eljtds82ndhgg" class="animable"></path><g id="elaghas0gs1tj"><path d="M64.16,107.26c5,2.86,13,2.86,17.92,0s5-7.48,0-10.34-13-2.86-17.92,0S59.21,104.41,64.16,107.26Z" style="opacity: 0.03; transform-origin: 73.1294px 102.09px;" class="animable"></path></g><path d="M85.07,102h0V80.66H63.69V102h0c-.09,1.64.94,3.31,3.12,4.56a16.73,16.73,0,0,0,15.13,0C84.13,105.33,85.16,103.66,85.07,102Z" style="fill: rgb(235, 235, 235); transform-origin: 74.38px 94.514px;" id="elrqxrwc9ho4o" class="animable"></path><path d="M66.83,85A16.67,16.67,0,0,0,82,85c4.17-2.41,4.17-6.32,0-8.73a16.73,16.73,0,0,0-15.13,0C62.65,78.7,62.65,82.61,66.83,85Z" style="fill: rgb(250, 250, 250); transform-origin: 74.4137px 80.6438px;" id="elb9342w17g3" class="animable"></path><ellipse cx="74.39" cy="80.66" rx="10.04" ry="5.67" style="fill: rgb(235, 235, 235); transform-origin: 74.39px 80.66px;" id="elmf8ikgs40ih" class="animable"></ellipse><path d="M81.49,77.68a16,16,0,0,0-14.2,0,5.24,5.24,0,0,0-2.9,3.5,5.25,5.25,0,0,0,2.9,3.49,16,16,0,0,0,14.2,0,5.22,5.22,0,0,0,2.9-3.49A5.22,5.22,0,0,0,81.49,77.68Z" style="fill: rgb(245, 245, 245); transform-origin: 74.39px 81.175px;" id="el20zj1d4gtw8" class="animable"></path><path d="M63.69,98.41c0,1.59,1,3.18,3.14,4.4a16.73,16.73,0,0,0,15.13,0c2.09-1.21,3.13-2.79,3.13-4.37V84.14c0,1.58-1,3.16-3.13,4.37a16.73,16.73,0,0,1-15.13,0c-2.11-1.22-3.15-2.81-3.14-4.4Z" style="fill: rgb(224, 224, 224); transform-origin: 74.39px 94.364px;" id="el7xbcsaipbnk" class="animable"></path><g id="el4mf82zkfm26"><path d="M78.77,107.85c-3.93,1-8.71.6-11.94-1.27-2.18-1.25-3.21-2.91-3.12-4.56h0V80.66c0,1.58,1,3.16,3.14,4.37a9,9,0,0,0,1,.51v19.08C67.86,106.4,73.82,108.53,78.77,107.85Z" style="opacity: 0.05; transform-origin: 71.2373px 94.5213px;" class="animable"></path></g><path d="M76.83,84.47l-1.13-.66c-.92-.53-1.17-1.25-.55-1.61a3.23,3.23,0,0,1,2.78.32l1.14.66c.92.53,1.17,1.25.55,1.6A3.21,3.21,0,0,1,76.83,84.47Z" style="fill: rgb(224, 224, 224); transform-origin: 77.385px 83.4939px;" id="elhdhydx4ba2" class="animable"></path><path d="M75.65,83.19a1.32,1.32,0,0,0,1.22,0c.33-.19.33-.5,0-.7a1.38,1.38,0,0,0-1.22,0C75.31,82.69,75.31,83,75.65,83.19Z" style="fill: rgb(245, 245, 245); transform-origin: 76.2563px 82.8436px;" id="elsettt77282c" class="animable"></path><path d="M77.9,84.41a1.36,1.36,0,0,0,1.21,0,.37.37,0,0,0,0-.7,1.3,1.3,0,0,0-1.21,0A.37.37,0,0,0,77.9,84.41Z" style="fill: rgb(245, 245, 245); transform-origin: 78.505px 84.0563px;" id="els5qd3gyyfg" class="animable"></path><g id="elitnyvavxcdr"><path d="M44.65,118.51c4.94,2.85,13,2.85,17.92,0s4.94-7.49,0-10.35-13-2.86-17.92,0S39.7,115.65,44.65,118.51Z" style="opacity: 0.03; transform-origin: 53.6081px 113.331px;" class="animable"></path></g><path d="M65.56,113.26h0V91.9H44.18v21.36h0c-.09,1.65.94,3.31,3.12,4.56a16.65,16.65,0,0,0,15.12,0C64.62,116.57,65.65,114.91,65.56,113.26Z" style="fill: rgb(235, 235, 235); transform-origin: 54.87px 105.768px;" id="elhkc6qu6hm9p" class="animable"></path><ellipse cx="54.88" cy="91.9" rx="10.7" ry="6.18" style="fill: rgb(250, 250, 250); transform-origin: 54.88px 91.9px;" id="elsx3mnbedkh" class="animable"></ellipse><path d="M47.78,95.91a16,16,0,0,0,14.2,0c3.93-2.22,3.93-5.81,0-8a16,16,0,0,0-14.2,0C43.85,90.1,43.85,93.69,47.78,95.91Z" style="fill: rgb(235, 235, 235); transform-origin: 54.88px 91.91px;" id="elyhyu9tknbk8" class="animable"></path><path d="M62,88.93a16,16,0,0,0-14.2,0,5.21,5.21,0,0,0-2.9,3.49,5.25,5.25,0,0,0,2.9,3.49,16,16,0,0,0,14.2,0,5.25,5.25,0,0,0,2.9-3.49A5.21,5.21,0,0,0,62,88.93Z" style="fill: rgb(245, 245, 245); transform-origin: 54.9px 92.42px;" id="el8vjupbx3ckx" class="animable"></path><path d="M44.18,109.65c0,1.59,1,3.19,3.14,4.4a16.71,16.71,0,0,0,15.12,0c2.09-1.21,3.14-2.79,3.14-4.37V95.38c0,1.58-1,3.16-3.14,4.37a16.71,16.71,0,0,1-15.12,0c-2.11-1.22-3.15-2.81-3.14-4.4Z" style="fill: rgb(224, 224, 224); transform-origin: 54.88px 105.604px;" id="elagjfwdmxlbs" class="animable"></path><g id="eljk3um10djte"><path d="M59.26,119.09c-3.93,1-8.72.6-11.94-1.27-2.18-1.25-3.21-2.91-3.12-4.56h0V91.9c0,1.58,1,3.16,3.14,4.37a9,9,0,0,0,1,.52v19.07C48.35,117.65,54.31,119.77,59.26,119.09Z" style="opacity: 0.05; transform-origin: 51.7273px 105.761px;" class="animable"></path></g><path d="M57.32,95.71l-1.13-.66c-.92-.53-1.17-1.25-.55-1.6a3.19,3.19,0,0,1,2.78.31l1.14.66c.92.53,1.16,1.25.55,1.61A3.25,3.25,0,0,1,57.32,95.71Z" style="fill: rgb(224, 224, 224); transform-origin: 57.8728px 94.7362px;" id="el9ti3ffbi5ml" class="animable"></path><path d="M56.13,94.44a1.38,1.38,0,0,0,1.22,0,.37.37,0,0,0,0-.71,1.38,1.38,0,0,0-1.22,0A.38.38,0,0,0,56.13,94.44Z" style="fill: rgb(245, 245, 245); transform-origin: 56.7506px 94.085px;" id="elbnecd9ntrhm" class="animable"></path><path d="M58.38,95.65a1.32,1.32,0,0,0,1.22,0,.37.37,0,0,0,0-.7,1.32,1.32,0,0,0-1.22,0A.37.37,0,0,0,58.38,95.65Z" style="fill: rgb(245, 245, 245); transform-origin: 58.99px 95.3px;" id="elq7e9q37prsi" class="animable"></path></g><g id="freepik--cans--inject-1--inject-68" class="animable" style="transform-origin: 83.41px 156.68px;"><path d="M31.31,164.42a1.08,1.08,0,0,0-.2.29A1.68,1.68,0,0,1,31.31,164.42Z" style="fill: rgb(224, 224, 224); transform-origin: 31.21px 164.565px;" id="elelbtzzr9i8s" class="animable"></path><path d="M138.8,151.18v-4.51h0a1.57,1.57,0,0,0-.9-1.2l-27.05-15.62a4.62,4.62,0,0,0-4.16,0l-77.76,44.9A1.53,1.53,0,0,0,28,176h0v4.5h0a1.51,1.51,0,0,0,.89,1.2L56,197.27a4.62,4.62,0,0,0,4.16,0l77.76-44.89a1.58,1.58,0,0,0,.9-1.2Z" style="fill: rgb(240, 240, 240); transform-origin: 83.41px 163.56px;" id="elcmy0pjaqbvg" class="animable"></path><path d="M28.93,177.15,56,192.77a4.62,4.62,0,0,0,4.16,0l77.76-44.9a1.27,1.27,0,0,0,0-2.4l-27.05-15.62a4.62,4.62,0,0,0-4.16,0l-77.76,44.9A1.27,1.27,0,0,0,28.93,177.15Z" style="fill: rgb(250, 250, 250); transform-origin: 83.4299px 161.31px;" id="elpuqcl21p0hc" class="animable"></path><path d="M58.06,193.27v4.5a4.29,4.29,0,0,1-2.08-.5l-27-15.61a1.52,1.52,0,0,1-.89-1.2h0V176h0a1,1,0,0,1,.17-.51c-.32.58-.08,1.25.72,1.71L56,192.77A4.27,4.27,0,0,0,58.06,193.27Z" style="fill: rgb(224, 224, 224); transform-origin: 43.075px 186.63px;" id="elpl3g2agcupm" class="animable"></path><g id="el5ktkkq3rdp6"><ellipse cx="112.14" cy="143.21" rx="12.67" ry="7.32" style="opacity: 0.03; transform-origin: 112.14px 143.21px;" class="animable"></ellipse></g><path d="M124.1,143.14h0V121.77H102.72v21.37h0c-.09,1.64,1,3.3,3.12,4.56a16.73,16.73,0,0,0,15.13,0C123.16,146.44,124.19,144.78,124.1,143.14Z" style="fill: rgb(235, 235, 235); transform-origin: 113.41px 135.639px;" id="el8eyl6fqq3yr" class="animable"></path><ellipse cx="113.42" cy="121.77" rx="10.7" ry="6.18" style="fill: rgb(250, 250, 250); transform-origin: 113.42px 121.77px;" id="el8sfo641p1eo" class="animable"></ellipse><ellipse cx="113.42" cy="121.77" rx="10.04" ry="5.67" style="fill: rgb(235, 235, 235); transform-origin: 113.42px 121.77px;" id="el33cqs5vlz35" class="animable"></ellipse><path d="M120.52,118.8a16.06,16.06,0,0,0-14.21,0,5.28,5.28,0,0,0-2.9,3.49,5.24,5.24,0,0,0,2.9,3.49,16,16,0,0,0,14.21,0,5.21,5.21,0,0,0,2.9-3.49A5.25,5.25,0,0,0,120.52,118.8Z" style="fill: rgb(245, 245, 245); transform-origin: 113.415px 122.293px;" id="elh6a20pylyq" class="animable"></path><path d="M102.72,139.52c0,1.6,1,3.19,3.13,4.4a16.67,16.67,0,0,0,15.13,0c2.09-1.2,3.13-2.78,3.13-4.36v-14.3c0,1.58-1,3.16-3.13,4.36a16.73,16.73,0,0,1-15.13,0c-2.1-1.21-3.15-2.81-3.13-4.4Z" style="fill: rgb(224, 224, 224); transform-origin: 113.415px 135.478px;" id="ells86iodz279" class="animable"></path><g id="elcmlrupwytx"><path d="M117.8,149c-3.94,1-8.72.61-12-1.26-2.17-1.25-3.2-2.92-3.12-4.57h0V121.77c0,1.59,1,3.17,3.13,4.37a8.41,8.41,0,0,0,1,.52v19.08C106.89,147.52,112.85,149.65,117.8,149Z" style="opacity: 0.05; transform-origin: 110.238px 135.653px;" class="animable"></path></g><path d="M115.86,125.58l-1.14-.65c-.92-.53-1.16-1.25-.55-1.61a3.22,3.22,0,0,1,2.79.32l1.13.65c.92.53,1.17,1.25.55,1.61A3.17,3.17,0,0,1,115.86,125.58Z" style="fill: rgb(224, 224, 224); transform-origin: 116.407px 124.611px;" id="el51l97mbjn8" class="animable"></path><path d="M114.67,124.31a1.32,1.32,0,0,0,1.22,0,.37.37,0,0,0,0-.7,1.32,1.32,0,0,0-1.22,0A.37.37,0,0,0,114.67,124.31Z" style="fill: rgb(245, 245, 245); transform-origin: 115.28px 123.96px;" id="elw0itsn7aque" class="animable"></path><path d="M116.92,125.53a1.38,1.38,0,0,0,1.22,0,.37.37,0,0,0,0-.71,1.38,1.38,0,0,0-1.22,0A.37.37,0,0,0,116.92,125.53Z" style="fill: rgb(245, 245, 245); transform-origin: 117.53px 125.175px;" id="el1z2412m27d9" class="animable"></path><g id="el52j8dfgvztj"><path d="M83.67,159.62c5,2.86,13,2.86,17.92,0s5-7.49,0-10.34-13-2.86-17.92,0S78.72,156.77,83.67,159.62Z" style="opacity: 0.03; transform-origin: 92.6394px 154.452px;" class="animable"></path></g><path d="M104.59,154.38h0V133H83.21v21.36h0c-.09,1.64.94,3.31,3.12,4.56a16.73,16.73,0,0,0,15.13,0C103.64,157.69,104.68,156,104.59,154.38Z" style="fill: rgb(235, 235, 235); transform-origin: 93.9px 146.864px;" id="elpf5vueekqf" class="animable"></path><ellipse cx="93.9" cy="133.02" rx="10.7" ry="6.18" style="fill: rgb(250, 250, 250); transform-origin: 93.9px 133.02px;" id="ellmm9jad871a" class="animable"></ellipse><ellipse cx="93.9" cy="133.02" rx="10.04" ry="5.67" style="fill: rgb(235, 235, 235); transform-origin: 93.9px 133.02px;" id="elm43a08kv6dl" class="animable"></ellipse><path d="M101,130a16.06,16.06,0,0,0-14.21,0,5.25,5.25,0,0,0-2.9,3.49,5.24,5.24,0,0,0,2.9,3.5A16.06,16.06,0,0,0,101,137a5.23,5.23,0,0,0,2.89-3.5A5.23,5.23,0,0,0,101,130Z" style="fill: rgb(245, 245, 245); transform-origin: 93.89px 133.498px;" id="ell2fcq6birf" class="animable"></path><path d="M83.21,150.77c0,1.59,1,3.18,3.13,4.4a16.73,16.73,0,0,0,15.13,0c2.09-1.21,3.13-2.79,3.13-4.37V136.5c0,1.58-1,3.16-3.13,4.36a16.67,16.67,0,0,1-15.13,0c-2.1-1.21-3.15-2.8-3.13-4.4Z" style="fill: rgb(224, 224, 224); transform-origin: 93.9049px 146.719px;" id="el0b9i2mt8nhce" class="animable"></path><g id="el0izvhem0bysv"><path d="M98.28,160.21c-3.93,1-8.71.6-11.94-1.27-2.17-1.25-3.21-2.91-3.12-4.57h0V133c0,1.58,1,3.16,3.14,4.37a9.85,9.85,0,0,0,1,.51V157C87.37,158.76,93.34,160.89,98.28,160.21Z" style="opacity: 0.05; transform-origin: 90.7473px 146.871px;" class="animable"></path></g><path d="M96.35,136.83l-1.14-.66c-.92-.53-1.17-1.25-.55-1.61a3.25,3.25,0,0,1,2.79.32l1.13.65c.92.54,1.17,1.26.55,1.61A3.19,3.19,0,0,1,96.35,136.83Z" style="fill: rgb(224, 224, 224); transform-origin: 96.895px 135.854px;" id="elyhl82311qy" class="animable"></path><path d="M95.16,135.55a1.32,1.32,0,0,0,1.22,0,.37.37,0,0,0,0-.7,1.38,1.38,0,0,0-1.22,0A.37.37,0,0,0,95.16,135.55Z" style="fill: rgb(245, 245, 245); transform-origin: 95.77px 135.204px;" id="elhtgfcaahya" class="animable"></path><path d="M97.41,136.77a1.38,1.38,0,0,0,1.22,0c.33-.2.33-.51,0-.7a1.32,1.32,0,0,0-1.22,0C97.07,136.26,97.07,136.57,97.41,136.77Z" style="fill: rgb(245, 245, 245); transform-origin: 98.0163px 136.416px;" id="eld167kk1enw5" class="animable"></path><g id="elcsf8b33sxdt"><ellipse cx="73.12" cy="165.69" rx="12.67" ry="7.32" style="opacity: 0.03; transform-origin: 73.12px 165.69px;" class="animable"></ellipse></g><path d="M85.07,165.62h0V144.26H63.69v21.36h0c-.09,1.65.94,3.31,3.12,4.56a16.67,16.67,0,0,0,15.13,0C84.13,168.93,85.16,167.27,85.07,165.62Z" style="fill: rgb(235, 235, 235); transform-origin: 74.38px 158.128px;" id="el19tqzx0u22g" class="animable"></path><path d="M66.83,148.63a16.73,16.73,0,0,0,15.13,0c4.17-2.42,4.17-6.33,0-8.74a16.73,16.73,0,0,0-15.13,0C62.65,142.3,62.65,146.21,66.83,148.63Z" style="fill: rgb(250, 250, 250); transform-origin: 74.3912px 144.26px;" id="ell4znbct7cns" class="animable"></path><path d="M67.29,148.27a16,16,0,0,0,14.2,0c3.93-2.22,3.93-5.81,0-8a16,16,0,0,0-14.2,0C63.37,142.46,63.37,146.05,67.29,148.27Z" style="fill: rgb(235, 235, 235); transform-origin: 74.3937px 144.27px;" id="elzryvc3s8hf" class="animable"></path><path d="M81.49,141.29a16,16,0,0,0-14.2,0,5.21,5.21,0,0,0-2.9,3.49,5.25,5.25,0,0,0,2.9,3.49,16,16,0,0,0,14.2,0,5.22,5.22,0,0,0,2.9-3.49A5.18,5.18,0,0,0,81.49,141.29Z" style="fill: rgb(245, 245, 245); transform-origin: 74.39px 144.78px;" id="el9bl6de5lpaf" class="animable"></path><path d="M63.69,162c0,1.59,1,3.18,3.14,4.4a16.73,16.73,0,0,0,15.13,0c2.09-1.21,3.13-2.79,3.13-4.37v-14.3c0,1.58-1,3.16-3.13,4.37a16.73,16.73,0,0,1-15.13,0c-2.11-1.22-3.15-2.81-3.14-4.4Z" style="fill: rgb(224, 224, 224); transform-origin: 74.39px 157.954px;" id="el5mbknsfii2u" class="animable"></path><g id="elrwxbgekgh7o"><path d="M78.77,171.45c-3.93,1-8.71.6-11.94-1.27-2.18-1.25-3.21-2.91-3.12-4.56h0V144.26c0,1.58,1,3.16,3.14,4.37a7.59,7.59,0,0,0,1,.51v19.08C67.86,170,73.82,172.13,78.77,171.45Z" style="opacity: 0.05; transform-origin: 71.2373px 158.121px;" class="animable"></path></g><path d="M76.83,148.07l-1.13-.66c-.92-.53-1.17-1.25-.55-1.61a3.23,3.23,0,0,1,2.78.32l1.14.66c.92.53,1.17,1.25.55,1.61A3.25,3.25,0,0,1,76.83,148.07Z" style="fill: rgb(224, 224, 224); transform-origin: 77.385px 147.095px;" id="els72fziay7v" class="animable"></path><path d="M75.65,146.8a1.38,1.38,0,0,0,1.22,0,.38.38,0,0,0,0-.71,1.38,1.38,0,0,0-1.22,0A.37.37,0,0,0,75.65,146.8Z" style="fill: rgb(245, 245, 245); transform-origin: 76.2494px 146.445px;" id="elfw3t5uozklr" class="animable"></path><path d="M77.9,148a1.3,1.3,0,0,0,1.21,0,.37.37,0,0,0,0-.7,1.3,1.3,0,0,0-1.21,0A.37.37,0,0,0,77.9,148Z" style="fill: rgb(245, 245, 245); transform-origin: 78.505px 147.65px;" id="elpzcvftw2yvh" class="animable"></path><g id="elwkl0fnumpl"><path d="M44.65,182.11c4.94,2.85,13,2.85,17.92,0s4.94-7.49,0-10.35-13-2.85-17.92,0S39.7,179.25,44.65,182.11Z" style="opacity: 0.03; transform-origin: 53.6081px 176.933px;" class="animable"></path></g><path d="M65.56,176.86h0V155.5H44.18v21.36h0c-.09,1.65.94,3.31,3.12,4.57a16.71,16.71,0,0,0,15.12,0C64.62,180.17,65.65,178.51,65.56,176.86Z" style="fill: rgb(235, 235, 235); transform-origin: 54.87px 169.369px;" id="el1ax21ri19rm" class="animable"></path><ellipse cx="54.88" cy="155.5" rx="10.7" ry="6.18" style="fill: rgb(250, 250, 250); transform-origin: 54.88px 155.5px;" id="elo4zk2thexbg" class="animable"></ellipse><ellipse cx="54.88" cy="155.5" rx="10.04" ry="5.67" style="fill: rgb(235, 235, 235); transform-origin: 54.88px 155.5px;" id="elo38p2umrabi" class="animable"></ellipse><path d="M62,152.53a16,16,0,0,0-14.2,0,5.23,5.23,0,0,0-2.9,3.49,5.23,5.23,0,0,0,2.9,3.49,16,16,0,0,0,14.2,0,5.23,5.23,0,0,0,2.9-3.49A5.23,5.23,0,0,0,62,152.53Z" style="fill: rgb(245, 245, 245); transform-origin: 54.9px 156.02px;" id="elu877f4sapsm" class="animable"></path><path d="M44.18,173.25c0,1.59,1,3.19,3.14,4.4a16.71,16.71,0,0,0,15.12,0c2.09-1.21,3.14-2.79,3.14-4.37V159c0,1.58-1,3.16-3.14,4.37a16.71,16.71,0,0,1-15.12,0c-2.11-1.21-3.15-2.81-3.14-4.4Z" style="fill: rgb(224, 224, 224); transform-origin: 54.88px 169.214px;" id="elmmo9szqyvu" class="animable"></path><g id="eluvc8euqedc"><path d="M59.26,182.69c-3.93,1-8.72.6-11.94-1.27-2.18-1.25-3.21-2.91-3.12-4.56h0V155.5c0,1.58,1,3.16,3.14,4.37a9,9,0,0,0,1,.52v19.07C48.35,181.25,54.31,183.37,59.26,182.69Z" style="opacity: 0.05; transform-origin: 51.7273px 169.361px;" class="animable"></path></g><path d="M57.32,159.31l-1.13-.66c-.92-.53-1.17-1.25-.55-1.6a3.19,3.19,0,0,1,2.78.31l1.14.66c.92.53,1.16,1.25.55,1.61A3.25,3.25,0,0,1,57.32,159.31Z" style="fill: rgb(224, 224, 224); transform-origin: 57.8728px 158.336px;" id="el7d47l9s0kw3" class="animable"></path><path d="M56.13,158a1.38,1.38,0,0,0,1.22,0,.37.37,0,0,0,0-.71,1.38,1.38,0,0,0-1.22,0A.38.38,0,0,0,56.13,158Z" style="fill: rgb(245, 245, 245); transform-origin: 56.7506px 157.645px;" id="el7oznurzxi5j" class="animable"></path><path d="M58.38,159.25a1.32,1.32,0,0,0,1.22,0,.37.37,0,0,0,0-.7,1.38,1.38,0,0,0-1.22,0A.37.37,0,0,0,58.38,159.25Z" style="fill: rgb(245, 245, 245); transform-origin: 58.99px 158.904px;" id="elxlwgqd0ask" class="animable"></path></g></g><g id="freepik--Characters--inject-1--inject-68" class="animable" style="transform-origin: 248.805px 248.099px;"><g id="freepik--characters--inject-1--inject-68" class="animable" style="transform-origin: 248.805px 248.099px;"><path id="freepik--back-arm--inject-1--inject-68" d="M209.66,128.17a11.39,11.39,0,0,1,9.07,2.07c4.22,3.27,5.74,7.63,6.93,15.4s3,21.57,3,21.57l25.54,18.16c-.85.52-6.38,7-6.88,9.92,0,0-20.17-7.61-28.55-12.2s-8.22-6.66-9.07-10.14-4.36-30.18-3.55-36.14S207.64,129,209.66,128.17Z" style="fill: rgb(38, 50, 56); transform-origin: 230.115px 161.621px;" class="animable"></path><g id="freepik--character-boy--inject-1--inject-68" class="animable" style="transform-origin: 153.224px 217.671px;"><path d="M83.73,301.07c-.9-.5-3.48.84-4.28,1.57s-1.73,3.36-1.8,5.69c-.05,1.62.75,3.8-.56,7-1.79,4.38-3.6,8.48-3,13.88s1.82,6.85,3.47,8.8a9.44,9.44,0,0,0,7.79,3.29,4.33,4.33,0,0,0,3.63-2Z" style="fill: rgb(38, 50, 56); transform-origin: 81.4764px 321.14px;" id="elbsca6i3h6pm" class="animable"></path><polygon points="172.77 338.43 185.21 340.95 189.84 319.34 177.39 316.82 172.77 338.43" style="fill: rgb(255, 168, 167); transform-origin: 181.305px 328.885px;" id="elropuwdixx7" class="animable"></polygon><path d="M187.42,272.39c.27,2.44-1.28,6-2.82,9-4.72,9.34-9.79,39.9-11.27,48.46A20.33,20.33,0,0,0,187.8,333s22.5-51.72,23.62-56.15c1.69-6.68,3.45-37.2,4-48.88.67-14.3,1.83-28.79,1.83-28.79l-54.6-4.64s-3.46,13.32-5.87,21.19-8.33,30.84-11.81,37a16.6,16.6,0,0,1-7.45,6.64c-15.72,6-33.56,30.66-40.67,36,0,10,8.28,11.92,8.28,11.92s47.64-30.21,51.58-32.76c6-3.87,10.51-9.85,15.21-19.59,5.21-10.8,14.12-31.39,14.12-31.39S186.52,264.3,187.42,272.39Z" style="fill: rgb(90, 109, 117); transform-origin: 157.05px 263.897px;" id="el18fm2g07o68" class="animable"></path><g id="eleccmwbb67tu"><path d="M187.42,272.39c.27,2.44-1.28,6-2.82,9-4.72,9.34-9.79,39.9-11.27,48.46A20.33,20.33,0,0,0,187.8,333s22.5-51.72,23.62-56.15c1.69-6.68,3.45-37.2,4-48.88.67-14.3,1.83-28.79,1.83-28.79l-54.6-4.64s-3.46,13.32-5.87,21.19-8.33,30.84-11.81,37a16.6,16.6,0,0,1-7.45,6.64c-15.72,6-33.56,30.66-40.67,36,0,10,8.28,11.92,8.28,11.92s47.64-30.21,51.58-32.76c6-3.87,10.51-9.85,15.21-19.59,5.21-10.8,14.12-31.39,14.12-31.39S186.52,264.3,187.42,272.39Z" style="opacity: 0.5; transform-origin: 157.05px 263.897px;" class="animable"></path></g><g id="elfixit3fxt6w"><path d="M186,223.61c0,.18.33,37.3,1.27,47.56l2.46-46A23.64,23.64,0,0,0,199,217.4c-7.18,5.09-12.94,6.21-12.94,6.21Z" style="opacity: 0.2; transform-origin: 192.5px 244.285px;" class="animable"></path></g><g id="el7g92k74t5qv"><path d="M209.75,260.93c-2.62-.49-4.88-2.13-7.56-2.19a2.36,2.36,0,0,0-1.77.53,10.48,10.48,0,0,0-2.15,4.65c-.09,1.09.19,2.32-.52,3.18s-1.7.87-2.56,1.31a5.67,5.67,0,0,0-1.74,1.53c-.8,1-1.45,2.45-.64,3.43a3.08,3.08,0,0,0,3,.61,6,6,0,0,1,3.15-.18,3.32,3.32,0,0,1,1.82,3.51c-.11,1.4-.7,2.73-.85,4.13a3.61,3.61,0,0,0,.55,2.59c1.11,1.49,3.62,1.36,5.12.23a10.18,10.18,0,0,0,2.92-4.64l2-5.09a12.07,12.07,0,0,1,1.82-3.44c.32-2.62.62-5.79.92-9.24A19.08,19.08,0,0,0,209.75,260.93Z" style="opacity: 0.05; transform-origin: 202.849px 271.927px;" class="animable"></path></g><g id="elur85kboux2m"><path d="M194.88,260.64a3.75,3.75,0,0,0,2.16-4.06,6.91,6.91,0,0,0-2.64-4.09c-1.19-1-2.64-1.82-3.13-3.24a5,5,0,0,1,.56-3.79,14.56,14.56,0,0,0,1.56-3.61,3.1,3.1,0,0,0-1.42-3.39c-1.55-.73-3.35.37-4.5,1.6a14.12,14.12,0,0,0-1.16,1.4c.11,5.29.24,11,.39,16.22a12.75,12.75,0,0,1,2.79,1.57C191.09,260.31,193.07,261.32,194.88,260.64Z" style="opacity: 0.05; transform-origin: 191.702px 249.543px;" class="animable"></path></g><g id="elw6mi7btlrgl"><path d="M181.07,231.52a9.16,9.16,0,0,1,.22-5.3,10.81,10.81,0,0,0,.47-5.3,4.34,4.34,0,0,0-4.52-3.1,4,4,0,0,0-2.94,2.89,42.46,42.46,0,0,0-.76,4.2,4.86,4.86,0,0,1-1.77,3,11,11,0,0,0-2.81,1.8,4.61,4.61,0,0,0-1.36,2.69,3.06,3.06,0,0,0,.81,2.32c.51.55,1.21.94,1.56,1.58.57,1,0,2.29-.17,3.46a5.53,5.53,0,0,0,1.32,4.24,7.61,7.61,0,0,0,4,2.37c.25.06.51.09.77.13,2.07-4.53,4.22-9.38,6-13.45A9,9,0,0,1,181.07,231.52Z" style="opacity: 0.15; transform-origin: 174.745px 232.153px;" class="animable"></path></g><g id="els4xufozry9o"><path d="M173.37,251.93l-.38-.36a8.43,8.43,0,0,0-5.25-2.3,4.38,4.38,0,0,0-1.2,0,3.91,3.91,0,0,0-1.5.74,11.41,11.41,0,0,0-2.16,1.8c-1,1.15-1.6,2.65-2.56,3.86a7.35,7.35,0,0,1-4,2.85c-1.11.25-2.37.17-3.28.83a2.19,2.19,0,0,0-.21,3.26c.9.85,2.55,1,2.91,2.19a2.52,2.52,0,0,1-.69,2.13c-.46.62-1,1.22-1.48,1.8a2.16,2.16,0,0,0-.63,1,1.38,1.38,0,0,0,1,1.38,3.74,3.74,0,0,0,1.85.05,14,14,0,0,0,8.55-4.93,19.38,19.38,0,0,1,2.81-3.31,7.57,7.57,0,0,1,.76-.49c1.35-2.21,2.68-4.66,4-7.44C172.37,254.05,172.86,253,173.37,251.93Z" style="opacity: 0.05; transform-origin: 162.785px 260.241px;" class="animable"></path></g><g id="elxmc7xuzs92n"><path d="M183.74,303.23c-.58-1.45.75-3,.47-4.56a3.29,3.29,0,0,0-.74-1.45,6.55,6.55,0,0,0-3.29-2.11c-.89,3.58-1.74,7.46-2.53,11.3a9.86,9.86,0,0,0,6.8,1.87,2.25,2.25,0,0,0,1.82-1c.34-.76-.2-1.62-.82-2.19A5.71,5.71,0,0,1,183.74,303.23Z" style="opacity: 0.15; transform-origin: 182.013px 301.718px;" class="animable"></path></g><g id="el5w6acpz0dxk"><path d="M205,248.33c-1.36.85-2.93,2-2.71,3.55s2.26,2.32,3.91,2.82a25.62,25.62,0,0,1,6.4,3c.31.2.63.41,1,.58.6-7.72,1.12-16.29,1.49-23a4.87,4.87,0,0,0-2.35-.71,3,3,0,0,0-2.54,1.06,3,3,0,0,0-.45,1.8c.05,1.48.7,2.91.63,4.39C210.21,244.68,207.52,246.77,205,248.33Z" style="opacity: 0.1; transform-origin: 208.68px 246.42px;" class="animable"></path></g><g id="el6sgxcaw4gv"><path d="M207.85,206.39a2.8,2.8,0,0,0-.48-1.48,4.18,4.18,0,0,0-1.51-1.1,42.62,42.62,0,0,0-7.77-3,20.17,20.17,0,0,0-6.41-.91c-1.61.07-4-.22-5.4.53a3.65,3.65,0,0,0-2.07,2.29,3.85,3.85,0,0,0,.31,2,12.18,12.18,0,0,1,.69,6.7c-.29,2.31-.07,4.32,2.14,5.69a5.85,5.85,0,0,0,4.93.51,9.67,9.67,0,0,0,3-1.92c1.61-1.36,3.18-2.88,5.21-3.54,1.5-.49,3.16-.48,4.58-1.15A4.84,4.84,0,0,0,207.85,206.39Z" style="opacity: 0.1; transform-origin: 196.021px 208.92px;" class="animable"></path></g><g id="el7ing9529kxw"><path d="M204.46,229.8c-1-.64-2.42-.89-3.29-1.74s-.75-2.26-1.53-3.35a2.49,2.49,0,0,0-2.07-1.1c-1.31.08-2.1,1.45-2.35,2.68s-.23,2.59-1,3.61a10.64,10.64,0,0,1-1.81,1.6c-2.78,2.38.47,3.7,2,5.22,2.72,2.74-1.16,6.31,1,9.12a3.94,3.94,0,0,0,4.71.78,7.33,7.33,0,0,0,3.25-3.77c.68-1.53,1.08-3.16,1.79-4.68a15,15,0,0,0,1.52-3.63A4.82,4.82,0,0,0,204.46,229.8Z" style="opacity: 0.15; transform-origin: 199.024px 235.344px;" class="animable"></path></g><g id="el89tw73eyvpq"><path d="M192.42,295.24c1.23-1.52,1.09-3.68.61-5.55a7.19,7.19,0,0,1-.41-3.84c.76-2.45,4.48-3.67,4.32-6.22-.11-1.67-2-2.77-3.72-2.95s-3.49.25-5.24.16a4.43,4.43,0,0,1-1.26-.27,40.82,40.82,0,0,1-2.12,4.82,55.16,55.16,0,0,0-3.28,9.33c1.61,1.31,2.4,3.39,4,4.74C187.28,297.17,190.79,297.26,192.42,295.24Z" style="opacity: 0.1; transform-origin: 189.133px 286.66px;" class="animable"></path></g><g id="elc1mrbmdfhem"><path d="M197.39,289a8,8,0,0,0-2.3,6.32c.11,2.69,1,5.7-.7,7.88-1,1.26-2.8,2.32-2.48,3.86.24,1.17,1.61,1.73,2.79,2.1a21.83,21.83,0,0,0,3.06.79c3.29-7.68,6.78-15.87,9.41-22.22C203.64,286.83,199.43,287.16,197.39,289Z" style="opacity: 0.15; transform-origin: 199.521px 298.6px;" class="animable"></path></g><g id="elvd4tmi2sxy9"><path d="M210.79,207.86c-.72,2-.84,4.16-1.86,6a13.87,13.87,0,0,1-3.67,3.9,6,6,0,0,0-1.88,2.09c-.78,1.79.5,3.86,2.16,5s3.69,1.62,5.42,2.63c1.18.69,2.21,1.6,3.41,2.26a7.3,7.3,0,0,0,.94.43c0-.78.07-1.5.1-2.17.42-9,1-18,1.43-23.52-.24-.1-.48-.2-.73-.28C213.36,203.29,211.6,205.67,210.79,207.86Z" style="opacity: 0.05; transform-origin: 209.993px 217.085px;" class="animable"></path></g><g id="el0hb3eo490nnc"><path d="M157.3,214c1.43,1.36,3.49,1.91,5.21,2.93a10,10,0,0,1,3.51,3.46,6.42,6.42,0,0,0,1.36,1.89,3.27,3.27,0,0,0,4.3-.65,4.71,4.71,0,0,0,.65-4.41,13.67,13.67,0,0,1-.83-2.76c-.15-1.89,1.26-3.54,2.69-4.84s3-2.63,3.52-4.47a5.54,5.54,0,0,0-1.32-4.82,13.54,13.54,0,0,0-4.24-3.14,37.22,37.22,0,0,0-4.74-2.21l-4.77-.41S159.65,206,157.3,214Z" style="opacity: 0.05; transform-origin: 167.561px 208.69px;" class="animable"></path></g><g id="elmzjexqbnqrp"><path d="M149.8,276.54a16.33,16.33,0,0,0-2.3-.65,2.49,2.49,0,0,1-1.75-1.43c-.24-.8.27-1.5.58-2.2a8.62,8.62,0,0,0,.79-2.93,3.91,3.91,0,0,0-1.39-3.43,4.41,4.41,0,0,0-2.19-.74,5.25,5.25,0,0,0-4.76,1.95,7.72,7.72,0,0,0-1,2.85,7.14,7.14,0,0,1-1.08,2.82c-.78,1-2.41,1.41-3.75,2.05a3,3,0,0,0-2.05,2.63c-.12,2.3,3.57,3.55,3.4,5.84a5.82,5.82,0,0,1-1.07,2.3,6.18,6.18,0,0,0-.78,3.61,4.54,4.54,0,0,0,.13.72c7.14-4.53,14.13-9,18.78-11.93A3.48,3.48,0,0,0,149.8,276.54Z" style="opacity: 0.15; transform-origin: 141.129px 277.525px;" class="animable"></path></g><g id="elfsxx79rqv3v"><path d="M150.67,242.54c.28,1.29.07,2.64.26,3.94a3.65,3.65,0,0,0,1.42,2.6,3.5,3.5,0,0,0,2.58.41,5.8,5.8,0,0,0,4-2.16,8,8,0,0,0,1.27-5.12,21.61,21.61,0,0,1-.32-2.76c.05-2.28,1.75-4.18,3.25-6s3-4,2.41-6.2a6.24,6.24,0,0,0-1.5-2.56,19.89,19.89,0,0,0-8.43-5.11c-1.58,5.53-3.81,13.63-6,20.62A6.72,6.72,0,0,1,150.67,242.54Z" style="opacity: 0.1; transform-origin: 157.641px 234.579px;" class="animable"></path></g><g id="elpd3arte3v9a"><path d="M137.51,259.39A29.37,29.37,0,0,0,134,261a11.76,11.76,0,0,0,.46,2.51,2.32,2.32,0,0,0,1.28,1.68c1,.32,1.94-.6,2.69-1.33a11.3,11.3,0,0,1,4-2.53c1.45-.55,2.79-.4,4.25-.72a5.53,5.53,0,0,0,4.16-5.29,7.27,7.27,0,0,0-3.57-6c-.21-.13-.43-.26-.65-.37a31.46,31.46,0,0,1-1.68,3.74A16.6,16.6,0,0,1,137.51,259.39Z" style="opacity: 0.15; transform-origin: 142.42px 257.103px;" class="animable"></path></g><g id="els564e00pji"><path d="M114,277.63a2.82,2.82,0,0,0,.55.6c.91.75,2.35,1.07,2.72,2.17a2.51,2.51,0,0,1-.57,2.16,6.48,6.48,0,0,0-1.18,2c-.35,1.44.86,2.9,2.32,3.37a7.69,7.69,0,0,0,4.54-.29c2.15-.68,4.42-1.95,4.89-4.06.39-1.7-.51-3.42-1.53-4.85a4,4,0,0,1-.68-1.2,3,3,0,0,1,.45-2.18c1-1.85,2.66-3.28,4-4.9s2.53-3.63,2.22-5.69a3.07,3.07,0,0,0-.93-1.84C125,266.68,119.22,272.17,114,277.63Z" style="opacity: 0.1; transform-origin: 122.89px 275.532px;" class="animable"></path></g><path d="M169.09,132.84c-1.4,1.8-2.42,5.34-2.37,9.31v29L161,197.74c7.5,8.28,48.15,16.86,55.6,4.83,0,0,6.68-43.17,6.65-51.57,0-5.81-1.64-19-11.79-22.79l-22.32-.56-5.73-.77C177.85,127.09,173.36,127.36,169.09,132.84Z" style="fill: rgb(55, 71, 79); transform-origin: 192.125px 167.703px;" id="elsjankj4fva" class="animable"></path><g id="elgfcdvk1bj1n"><circle cx="210.87" cy="91.61" r="15.3" style="fill: rgb(38, 50, 56); transform-origin: 210.87px 91.61px; transform: rotate(-41.89deg);" class="animable"></circle></g><path d="M183.87,101s1.84,11.77,2.73,13.73a5.25,5.25,0,0,0,2.91,2.62l.27-8.19Z" style="fill: rgb(38, 50, 56); transform-origin: 186.825px 109.175px;" id="elme5b707gg6e" class="animable"></path><path d="M187.88,84.54A5.76,5.76,0,0,0,183,86c-2.15,2-1.36,8.56.83,15.09l4.63.79Z" style="fill: rgb(38, 50, 56); transform-origin: 185.096px 93.1698px;" id="elapnpuy2zs9" class="animable"></path><path d="M189.9,101.91c-1,.51-2.2-1.36-3.29-2.63s-4.76-3.13-6.86.73,1.15,9.45,4.07,10.54c5,1.89,6-1.35,6-1.35l-.61,18.45c4.14,5.16,20.07,9.82,16.65.41l.29-5.6a20.1,20.1,0,0,0,5.78.75c3.79-.37,6.32-2.73,7.89-6.65,2.66-6.63,3.5-13.45,3.18-25.19-.38-14.2-17.3-15.21-26.45-10.13S189.9,101.91,189.9,101.91Z" style="fill: rgb(255, 168, 167); transform-origin: 201.072px 105.962px;" id="elfmmdy3toyde" class="animable"></path><path d="M189.82,103.48c-.42-.22-2.1-3.08-3.21-4.2-1.53-1.56,1.27-14.74,1.27-14.74s-1.37-3.39,1.92-6.64a14,14,0,0,1,6-3.56c3.28-.91,6.48-.2,9.71.52A38.36,38.36,0,0,0,216,76.2,19.24,19.24,0,0,0,223.88,74a2.91,2.91,0,0,1,1.59-.51c1.19.1,1.4,1.46,1.28,2.41a9.59,9.59,0,0,1-2.09,4.84c.84-.12,2-.09,2.23.72a1.33,1.33,0,0,1,0,.74,4.76,4.76,0,0,1-1.12,2c-3.48,4.09-9.84,5.64-15.05,5.34-4.36-.26-8.52-2.11-12.89-2.29a4.36,4.36,0,0,0-1.76.19,3.43,3.43,0,0,0-1.79,1.71,8.63,8.63,0,0,0-.73,2.43c-.55,2.92-.52,5.88-.94,8.82C192.4,101.87,191.88,104.61,189.82,103.48Z" style="fill: rgb(38, 50, 56); transform-origin: 206.548px 88.6182px;" id="eluyuw0ooczwo" class="animable"></path><path d="M187.83,85.58l-5.49-3.35a3.13,3.13,0,0,1,4.36-1.18A3.37,3.37,0,0,1,187.83,85.58Z" style="fill: rgb(38, 50, 56); transform-origin: 185.308px 83.0909px;" id="el0iq7428v2wau" class="animable"></path><path d="M206.11,122.46s-8.29-2.15-11.14-3.87a9.63,9.63,0,0,1-3.84-4.23,13.34,13.34,0,0,0,2.05,4.86c2,2.85,12.81,5.47,12.81,5.47Z" style="fill: rgb(242, 143, 143); transform-origin: 198.62px 119.525px;" id="elf7td3j6j918" class="animable"></path><path d="M207.88,100.61a1.68,1.68,0,1,1-1.59-1.84A1.71,1.71,0,0,1,207.88,100.61Z" style="fill: rgb(38, 50, 56); transform-origin: 206.207px 100.448px;" id="elb754wrmtl7b" class="animable"></path><path d="M206.5,94.79l-3.7,1.79a2.16,2.16,0,0,1,1-2.82A2,2,0,0,1,206.5,94.79Z" style="fill: rgb(38, 50, 56); transform-origin: 204.554px 95.0735px;" id="el68qy4tf52qf" class="animable"></path><path d="M205.92,112.32l4.63,2a2.49,2.49,0,0,1-3.3,1.39A2.65,2.65,0,0,1,205.92,112.32Z" style="fill: rgb(242, 143, 143); transform-origin: 208.139px 114.115px;" id="elvy8v1qiseo" class="animable"></path><path d="M220.87,97.67,217.73,95a2,2,0,0,1,2.87-.28A2.18,2.18,0,0,1,220.87,97.67Z" style="fill: rgb(38, 50, 56); transform-origin: 219.526px 95.9548px;" id="elw8m5xrczrh" class="animable"></path><path d="M220.41,101.14a1.71,1.71,0,0,1-1.77,1.65,1.75,1.75,0,1,1,1.77-1.65Z" style="fill: rgb(38, 50, 56); transform-origin: 218.663px 101.041px;" id="elnyozk4dhnze" class="animable"></path><polygon points="212.78 99.34 211.32 109.44 217.49 109.11 212.78 99.34" style="fill: rgb(242, 143, 143); transform-origin: 214.405px 104.39px;" id="elooqcgk8nh9e" class="animable"></polygon><path d="M168,347.3c-.66.34-.77,1.13-.61,2.65s1.9,4.18,5.42,5.3,7.51.83,9.22,1.62c2.51,1.16,4.22,3.43,9.52,6.08a21.78,21.78,0,0,0,13.12,2.15c4.27-.53,5.42-2.68,5.42-2.68s1.21-3,.31-3.68S168,347.3,168,347.3Z" style="fill: rgb(38, 50, 56); transform-origin: 189.029px 356.319px;" id="elsmbrmakn3l8" class="animable"></path><path d="M177.67,306.27c-3-.15-2.21,1.73-2.89,7.76-.71,6.35-1.06,13.87-3,19.83S168,343.82,168,348a10.87,10.87,0,0,0,5.77,4.57c4,1.32,6.92,1,9.34,2.06,3.92,1.68,6.06,5.34,13,6.76,7.53,1.54,11.38-.19,14.28-1.79,0,0,1-4.61-1.52-6.78-5.86-3-15.32-9.91-17.41-13.55s.84-9,3.47-17.23c2.41-7.57,4.36-9,2-10.06l-.8,1.82s-2.12.42-9.58-1.77-9.21-3.87-9.21-3.87Z" style="fill: rgb(55, 71, 79); transform-origin: 189.293px 334.126px;" id="el2jotbexy6bm" class="animable"></path><path d="M110.54,281.24s-1.51-1.94-3.51.16-9.09,11.27-13.59,14-5.26,3.73-10.32,5.93a9.41,9.41,0,0,0-2.72,7.93c.54,3.79-.59,7.26-2.36,11.06-2,4.3-1.64,10.32,1.08,15.19a14,14,0,0,0,6.5,5.8c4,0,7.89-.36,7.82-7.16A43.31,43.31,0,0,1,96,317.83c2.31-6.77,5.59-6.81,13-11.63s14.58-7.41,13.46-9.84l-1.6,1s-5.23-1.8-10.28-8.33c-2.67-3.44-1.93-5.74-1.93-5.74Z" style="fill: rgb(55, 71, 79); transform-origin: 99.6725px 310.867px;" id="el71s556t4xuh" class="animable"></path></g><g id="freepik--shopping-cart--inject-1--inject-68" class="animable" style="transform-origin: 320.961px 295.253px;"><path d="M289.75,418.55a15.1,15.1,0,0,0-6.84-11.84c-2-1.15-3.76-1.19-5-.36h0L273.29,409l9.81,16.66,4.57-2.63h0C289,422.32,289.75,420.78,289.75,418.55Z" style="fill: rgb(69, 90, 100); transform-origin: 281.52px 415.72px;" id="elqmfqhx2i1j" class="animable"></path><path d="M278.12,409.47A15.1,15.1,0,0,1,285,421.31c0,4.36-3.06,6.13-6.84,3.95a15.12,15.12,0,0,1-6.83-11.85C271.29,409.05,274.35,407.29,278.12,409.47Z" style="fill: rgb(55, 71, 79); transform-origin: 278.165px 417.364px;" id="el30rmibacyd9" class="animable"></path><path d="M275.81,416c0-1.71,1-2.49,2.32-1.75a5.54,5.54,0,0,1,2.31,4.42c0,1.7-1,2.49-2.31,1.75A5.55,5.55,0,0,1,275.81,416Z" style="fill: rgb(69, 90, 100); transform-origin: 278.125px 417.334px;" id="el6ezn5d8rmy9" class="animable"></path><path d="M286.14,402.19s0,7.8-3.72,10.56c-.7.52-1.45.88-1.89,1.25-.95.79-.32,2.24.84,2.86,1.67.9,10.8-1.53,14.67-8.95Z" style="fill: rgb(55, 71, 79); transform-origin: 288.054px 409.614px;" id="el1vykdq3tl9a" class="animable"></path><path d="M282.6,404.23s0,7.8-3.73,10.56c-.7.52-1.44.88-1.88,1.25-.95.79-.32,2.24.83,2.85,1.68.9,10.81-1.53,14.68-8.95Z" style="fill: rgb(38, 50, 56); transform-origin: 284.514px 411.649px;" id="el6wnfo9nxz6b" class="animable"></path><path d="M278.13,416.61a1.42,1.42,0,0,1,.65,1.13c0,.42-.29.59-.65.38a1.44,1.44,0,0,1-.66-1.14C277.47,416.57,277.76,416.4,278.13,416.61Z" style="fill: rgb(38, 50, 56); transform-origin: 278.125px 417.365px;" id="el6n7ivg6awi3" class="animable"></path><path d="M342,388.38a15.14,15.14,0,0,0-6.83-11.85c-2-1.14-3.76-1.19-5-.35h0l-4.61,2.63,9.8,16.66,4.58-2.63h0C341.22,392.14,342,390.6,342,388.38Z" style="fill: rgb(69, 90, 100); transform-origin: 333.78px 385.537px;" id="elwmu8aek7bq" class="animable"></path><path d="M330.4,379.29a15.1,15.1,0,0,1,6.84,11.84c0,4.36-3.06,6.13-6.84,3.95a15.1,15.1,0,0,1-6.84-11.84C323.56,378.88,326.62,377.11,330.4,379.29Z" style="fill: rgb(55, 71, 79); transform-origin: 330.4px 387.185px;" id="elfy1i8hd21q5" class="animable"></path><path d="M328.09,385.85c0-1.7,1-2.49,2.31-1.75a5.54,5.54,0,0,1,2.31,4.42c0,1.71-1,2.49-2.31,1.75A5.54,5.54,0,0,1,328.09,385.85Z" style="fill: rgb(69, 90, 100); transform-origin: 330.4px 387.186px;" id="elrdsr1hwa7t" class="animable"></path><path d="M338.41,372s0,7.81-3.72,10.57c-.7.52-1.44.88-1.88,1.24-.95.79-.32,2.25.83,2.86,1.68.9,10.81-1.53,14.67-8.95Z" style="fill: rgb(55, 71, 79); transform-origin: 340.329px 379.424px;" id="ellvvs3ok2rm" class="animable"></path><path d="M334.87,374.05s0,7.8-3.72,10.56c-.7.52-1.45.88-1.89,1.25-.94.79-.32,2.24.84,2.86,1.67.9,10.8-1.53,14.67-9Z" style="fill: rgb(38, 50, 56); transform-origin: 336.786px 381.474px;" id="elxiof6g9wal8" class="animable"></path><path d="M330.4,386.43a1.47,1.47,0,0,1,.66,1.14c0,.41-.3.58-.66.37a1.45,1.45,0,0,1-.66-1.13C329.74,386.39,330,386.22,330.4,386.43Z" style="fill: rgb(38, 50, 56); transform-origin: 330.4px 387.185px;" id="el6u2ejbxwo57" class="animable"></path><path d="M243.18,392a15.13,15.13,0,0,0-6.84-11.84c-2-1.15-3.76-1.19-5-.36h0l-4.61,2.63,9.81,16.67,4.57-2.63h0C242.37,395.72,243.18,394.18,243.18,392Z" style="fill: rgb(69, 90, 100); transform-origin: 234.955px 389.165px;" id="ely1uca8h3fa8" class="animable"></path><path d="M231.55,382.87a15.13,15.13,0,0,1,6.84,11.85c0,4.36-3.06,6.13-6.84,3.95a15.12,15.12,0,0,1-6.84-11.85C224.71,382.46,227.77,380.69,231.55,382.87Z" style="fill: rgb(55, 71, 79); transform-origin: 231.55px 390.77px;" id="el1tvsgr8brva" class="animable"></path><path d="M229.24,389.43c0-1.7,1-2.48,2.31-1.75a5.55,5.55,0,0,1,2.32,4.43c0,1.7-1,2.48-2.32,1.75A5.54,5.54,0,0,1,229.24,389.43Z" style="fill: rgb(69, 90, 100); transform-origin: 231.555px 390.77px;" id="elgoobxked8rv" class="animable"></path><path d="M239.56,375.6s0,7.8-3.72,10.56c-.7.52-1.44.88-1.88,1.25-1,.79-.32,2.24.83,2.86,1.68.9,10.81-1.54,14.67-9Z" style="fill: rgb(55, 71, 79); transform-origin: 241.468px 383.024px;" id="elos1bh2pf9ok" class="animable"></path><path d="M236,377.63s0,7.81-3.72,10.57c-.7.52-1.45.88-1.89,1.24-.94.79-.32,2.24.84,2.86,1.67.9,10.8-1.53,14.67-8.95Z" style="fill: rgb(38, 50, 56); transform-origin: 237.916px 385.054px;" id="elf90au1ng8fc" class="animable"></path><path d="M231.55,390a1.47,1.47,0,0,1,.66,1.14c0,.42-.3.59-.66.38a1.47,1.47,0,0,1-.66-1.14C230.89,390,231.19,389.8,231.55,390Z" style="fill: rgb(38, 50, 56); transform-origin: 231.55px 390.766px;" id="elyyb8c7h3n6" class="animable"></path><path d="M295.45,361.78a15.1,15.1,0,0,0-6.84-11.84c-2-1.14-3.76-1.19-5-.35h0L279,352.22l9.81,16.66,4.57-2.63h0C294.65,365.55,295.45,364,295.45,361.78Z" style="fill: rgb(69, 90, 100); transform-origin: 287.225px 358.947px;" id="ell9x6klwi2eq" class="animable"></path><path d="M283.82,352.7a15.1,15.1,0,0,1,6.84,11.84c0,4.36-3.06,6.13-6.84,3.95A15.12,15.12,0,0,1,277,356.65C277,352.29,280.05,350.52,283.82,352.7Z" style="fill: rgb(55, 71, 79); transform-origin: 283.83px 360.595px;" id="eljguz1ovbv0h" class="animable"></path><path d="M281.51,359.26c0-1.71,1-2.49,2.32-1.75a5.57,5.57,0,0,1,2.31,4.42c0,1.7-1,2.49-2.31,1.75A5.55,5.55,0,0,1,281.51,359.26Z" style="fill: rgb(69, 90, 100); transform-origin: 283.825px 360.594px;" id="els1oinef1vlp" class="animable"></path><path d="M291.84,345.42s0,7.8-3.72,10.57c-.7.52-1.45.88-1.89,1.24-1,.79-.32,2.24.84,2.86,1.67.9,10.8-1.53,14.67-8.95Z" style="fill: rgb(224, 224, 224); transform-origin: 293.743px 352.844px;" id="elkk4m1gp0wq8" class="animable"></path><path d="M288.3,347.46s0,7.8-3.73,10.56c-.7.52-1.44.88-1.88,1.25-.95.79-.32,2.24.83,2.86,1.68.89,10.81-1.54,14.68-9Z" style="fill: rgb(38, 50, 56); transform-origin: 290.214px 354.882px;" id="elmxzfr9iezrb" class="animable"></path><path d="M283.83,359.84a1.44,1.44,0,0,1,.65,1.13c0,.42-.29.59-.65.38a1.44,1.44,0,0,1-.66-1.14C283.17,359.8,283.46,359.63,283.83,359.84Z" style="fill: rgb(38, 50, 56); transform-origin: 283.825px 360.595px;" id="el403rh6ff3pq" class="animable"></path><path d="M307,415.88a14.55,14.55,0,0,1-7.14-1.7L233.21,376c-3.75-2.16-7.8-7.46-7.8-12.26v-64.3H229v64.3c0,3.27,3.17,7.53,6,9.16l66.64,38.14a12.27,12.27,0,0,0,10.77,0l39.77-23c1.06-.61,1.69-1.38,1.69-2.05s-.6-1.4-1.65-2l-66.86-38.11c-3.75-2.16-7.79-7.46-7.79-12.26V287.34h3.57v46.31c0,3.27,3.17,7.53,6,9.16L354,380.92c2.22,1.28,3.44,3.09,3.44,5.09s-1.26,3.87-3.47,5.15l-39.77,23A14.62,14.62,0,0,1,307,415.88Z" style="fill: rgb(55, 71, 79); transform-origin: 291.425px 351.612px;" id="eli2vjgcbuth" class="animable"></path><polygon points="278.04 291.94 223.34 323.52 312.23 374.85 366.93 343.27 278.04 291.94" style="fill: rgb(90, 109, 117); transform-origin: 295.135px 333.395px;" id="el18f6ujq0fhs" class="animable"></polygon><g id="elbhd4lhvk9"><polygon points="278.04 291.94 223.34 323.52 312.23 374.85 366.93 343.27 278.04 291.94" style="opacity: 0.1; transform-origin: 295.135px 333.395px;" class="animable"></polygon></g><path d="M218.52,234.12a11.88,11.88,0,0,1,5.27-12.38L264,198.36c4-2.32,8.13-.32,9.25,4.17L278,222l-4.74,2.74-4.73-18.15a3.22,3.22,0,0,0-5-2.07l-36,21.06a7.82,7.82,0,0,0-3.44,8l4,17.23-4.82,2.78Z" style="fill: rgb(224, 224, 224); transform-origin: 248.142px 225.488px;" id="ell5v2dsnokxt" class="animable"></path><path d="M274.33,204.7c-1.19,2.58-7.34,5.32-10.22,5.7s-6.47-2.37-6.47-2.37l2.4-1.41a3.4,3.4,0,0,0-1.94-4.87l-2.3,1.33c-1.87-1.47-2.19-4.07-4.89-5.85a33.2,33.2,0,0,0-3.63-1.94c.26-2.92,5.33-9.32,6.78-10,1.67,1.1,3.66,2.37,4.79,3,0,0,13.53,3.28,15.66,7.82C275.21,197.6,274.86,203.52,274.33,204.7Z" style="fill: rgb(255, 168, 167); transform-origin: 261.091px 197.863px;" id="el5a6hre9l0v5" class="animable"></path><polygon points="223.34 253.58 278.04 222 278.04 291.94 223.34 323.52 223.34 253.58" style="fill: rgb(90, 109, 117); transform-origin: 250.69px 272.76px;" id="el75rroxilq6c" class="animable"></polygon><g id="elzrqaakvz6x"><polygon points="223.34 253.58 278.04 222 278.04 291.94 223.34 323.52 223.34 253.58" style="fill: rgb(255, 255, 255); opacity: 0.2; transform-origin: 250.69px 272.76px;" class="animable"></polygon></g><path d="M278,222v69.94l88.89,51.32,20.52-58.1Zm29.09,70.26a4.78,4.78,0,0,1-5.81-3.43l-11.77-36.58a4.51,4.51,0,1,1,8.52-2.74l11.77,36.57A4.79,4.79,0,0,1,307.13,292.26ZM332.49,306a4.78,4.78,0,0,1-5.8-3.43L314.91,266a4.51,4.51,0,1,1,8.52-2.74l11.77,36.58A4.77,4.77,0,0,1,332.49,306Zm25.37,13.73a4.79,4.79,0,0,1-5.81-3.43l-11.77-36.57c-.85-2.66.36-5.43,2.71-6.18A4.78,4.78,0,0,1,348.8,277l11.77,36.58A4.77,4.77,0,0,1,357.86,319.72Z" style="fill: rgb(90, 109, 117); transform-origin: 332.705px 282.63px;" id="elke7b2tt4k1o" class="animable"></path><g id="elue74kae7upf"><path d="M278,222v69.94l88.89,51.32,20.52-58.1Zm29.09,70.26a4.78,4.78,0,0,1-5.81-3.43l-11.77-36.58a4.51,4.51,0,1,1,8.52-2.74l11.77,36.57A4.79,4.79,0,0,1,307.13,292.26ZM332.49,306a4.78,4.78,0,0,1-5.8-3.43L314.91,266a4.51,4.51,0,1,1,8.52-2.74l11.77,36.58A4.77,4.77,0,0,1,332.49,306Zm25.37,13.73a4.79,4.79,0,0,1-5.81-3.43l-11.77-36.57c-.85-2.66.36-5.43,2.71-6.18A4.78,4.78,0,0,1,348.8,277l11.77,36.58A4.77,4.77,0,0,1,357.86,319.72Z" style="fill: rgb(255, 255, 255); opacity: 0.55; transform-origin: 332.705px 282.63px;" class="animable"></path></g><g id="freepik--Character--inject-1--inject-68" class="animable" style="transform-origin: 333.379px 255.244px;"><path d="M423.51,213.68c-.92-2.16-4.81.09-8.87,2.51-3.74,2.22-11,6.48-11.59,5.75s-.45-4-1.57-6.06-3.68-2.48-3.51-.6c.1,1.08-.26,4.74-.34,6.41s-.3,3.93-1.85,5.05-32.84,8.72-32.84,8.72S337,222.92,331.7,220s-9.61-5.77-17.06-4.76c-9.52,4.36-5.44,13.12-.73,18.55,2.58,3,3.87.88,12.75,3.78,10.73,3.5,27.38,13.4,36.28,14,9.8-1.84,35.22-11.34,37.73-12,3-.76,5-.33,7.42-1,2.92-.76,5.43-1.28,8-3.1a3.08,3.08,0,0,0,1.49-2.1c0-.45-.11-.9-.08-1.36a15.62,15.62,0,0,0,.38-2.22c-.09-1-1.24-1.79-1.27-2.76,0-.42.53-1.62.37-2-.34-.84-.76-1-1.17-1.65-.23-.34-.86-.91-.5-1.34s1.71-1.15,4.39-3.36S424.14,215.15,423.51,213.68Z" style="fill: rgb(154, 74, 77); transform-origin: 366.253px 232.19px;" id="elpaf8dy2rr1n" class="animable"></path><path d="M336.92,340.49c-12.49,9.72-34.48,5.58-45.71-2-10.1-6.79-21.89-22.24-21.89-22.24s-.86-8.24,3.37-9.45Z" style="fill: rgb(90, 109, 117); transform-origin: 303.084px 326.488px;" id="el47x2k0idhrb" class="animable"></path><g id="elzreip6ac3h"><path d="M336.92,340.49c-12.49,9.72-34.48,5.58-45.71-2-10.1-6.79-21.89-22.24-21.89-22.24s-.86-8.24,3.37-9.45Z" style="opacity: 0.5; transform-origin: 303.084px 326.488px;" class="animable"></path></g><g id="elmk9qkhhbw3"><path d="M270.34,308.69a7.82,7.82,0,0,0-.92,3.38,73.63,73.63,0,0,0,15.67,13.26c14.35,9.25,24.31,10,24.31,10A118.5,118.5,0,0,1,286,323C277.07,317,272.84,312.84,270.34,308.69Z" style="opacity: 0.2; transform-origin: 289.41px 322.01px;" class="animable"></path></g><path d="M257.29,325.12c-2.56.76-7.28-.05-10.72-3.48s-4.83-9-1.72-13.64,6.38-6.77,8.16-9.66,2.66-7.46,4.66-9.88a8.5,8.5,0,0,1,6.42-3,5.15,5.15,0,0,1,4.1,1.9l1,1.16Z" style="fill: rgb(38, 50, 56); transform-origin: 256.155px 305.421px;" id="el27l8ehhtth5" class="animable"></path><path d="M282.84,332.18s-10.68-11.44-15.45-16.33-7.12-6-5.95-11.54,9.35-9.8,9.35-9.8L281,306.4l11.62,14.39C288.46,321.56,283,326.73,282.84,332.18Z" style="fill: rgb(55, 71, 79); transform-origin: 276.882px 313.345px;" id="el9nnu66cvf6d" class="animable"></path><path d="M267.39,315.85l-5.57.09s.6,6.49-1.19,7.9c-2.66,2.1-4.91,1.67-9.36-1.66-5.1-3.8-6.53-8.51-4.8-12.43,2.46-5.59,9.31-8,10.69-13.73s6.63-12.36,12.91-6.72c4.47,3.89,6.49,16.58,6.49,16.58Z" style="fill: rgb(55, 71, 79); transform-origin: 261.165px 306.139px;" id="eljwjcxsmu4n" class="animable"></path><path d="M265.4,300.25c-.23,0-.45,0-.67,0-5.7-.52-8.05-3.3-8.15-3.41l.92-.76-.46.38.46-.39s2.17,2.52,7.34,3,11.23-5.89,11.29-6l.87.82C276.74,294.18,271,300.25,265.4,300.25Z" style="fill: rgb(38, 50, 56); transform-origin: 266.79px 296.66px;" id="elqgj5u20vk7c" class="animable"></path><path d="M251.44,314.85c-1.72,0-4.19-.21-5.37,1.53,1.33,2.35,2,3.9,4.78,6,4.46,3.33,7.12,3.58,9.78,1.48,1.79-1.41,1.19-7.9,1.19-7.9C257.42,316.2,254.18,314.78,251.44,314.85Z" style="fill: rgb(38, 50, 56); transform-origin: 253.993px 320.025px;" id="el9al0czkc18a" class="animable"></path><path d="M265.25,316c-1.16-.57-2.49-.58-3.64-1.26a4.64,4.64,0,0,1-1.5-1.29c-.25-.32-.42-.62-.86-.65-.22,0-.54.09-.5.37.41,2.75,4.22,3.83,6.48,3.14A.16.16,0,0,0,265.25,316Z" style="fill: rgb(38, 50, 56); transform-origin: 262.054px 314.656px;" id="elhk8inrwrrh" class="animable"></path><path d="M268.94,313.35c.28-.36.58-.55.72-1a.22.22,0,0,0-.14-.24c-1.3-.48-2.27,1.8-2.18,3.58l-.7-.41a6.11,6.11,0,0,1-1.36-1.13,4.75,4.75,0,0,1-.92-1.42c-.14-.42,0-1-.23-1.35a.44.44,0,0,0-.65,0c-.91,1.12.2,2.77,1,3.63.64.68,1.94,1.56,2.95,1.32a1.43,1.43,0,0,0,1.2,1.25c.12,0,.32-.06.23-.22a5.46,5.46,0,0,1-.36-2.57A2.41,2.41,0,0,1,268.94,313.35Z" style="fill: rgb(38, 50, 56); transform-origin: 266.401px 314.408px;" id="el6rtvtp7k0p5" class="animable"></path><path d="M271.42,314.35c.1-.13,0-.26-.14-.3-1.1-.39-1.79,1.51-2,2.23-.22,1-.26,3.35,1.15,3.3.1,0,.32-.06.29-.2a8.57,8.57,0,0,1-.41-2.89A4.87,4.87,0,0,1,271.42,314.35Z" style="fill: rgb(38, 50, 56); transform-origin: 270.313px 316.789px;" id="el5ub23a0vnlf" class="animable"></path><path d="M273.81,316.74c.1-.13,0-.26-.15-.31-1.09-.39-1.78,1.52-2,2.24-.23.95-.26,3.34,1.15,3.29.09,0,.31-.06.29-.2a8.3,8.3,0,0,1-.42-2.89A4.7,4.7,0,0,1,273.81,316.74Z" style="fill: rgb(38, 50, 56); transform-origin: 272.695px 319.169px;" id="elqcch5hil94a" class="animable"></path><path d="M276.19,319.12c.1-.13,0-.26-.14-.3-1.1-.39-1.79,1.51-2,2.23-.22,1-.26,3.35,1.15,3.3.1,0,.32-.06.29-.2a8.57,8.57,0,0,1-.41-2.89A4.87,4.87,0,0,1,276.19,319.12Z" style="fill: rgb(38, 50, 56); transform-origin: 275.083px 321.559px;" id="elh3y0bstont4" class="animable"></path><path d="M278.58,321.51c.1-.13,0-.26-.15-.3-1.09-.4-1.78,1.51-1.95,2.23-.23.95-.26,3.35,1.15,3.29.09,0,.31-.06.29-.2a8.54,8.54,0,0,1-.42-2.89A4.75,4.75,0,0,1,278.58,321.51Z" style="fill: rgb(38, 50, 56); transform-origin: 277.49px 323.943px;" id="elan2lgd8y9ga" class="animable"></path><path d="M281,323.9c.1-.13,0-.27-.14-.31-1.1-.39-1.79,1.51-2,2.23-.22,1-.26,3.35,1.16,3.3.09,0,.31-.06.28-.2a8.57,8.57,0,0,1-.41-2.89A4.78,4.78,0,0,1,281,323.9Z" style="fill: rgb(38, 50, 56); transform-origin: 279.893px 326.329px;" id="eliewjx9sgc2" class="animable"></path><path d="M359.29,317.15c-1-4.29-9.26-13.9-17.31-20.65s-20.89-18.07-20.89-18.07h0l-51.58,3.08c-3.14,4.63-4.22,13.55-2.44,19.3,2.41,7.79,4.68,12.53,18.91,22.22a118.5,118.5,0,0,0,23.43,12.34c6.78,2.65,10.88,6.89,12.43,7.21,3.86.8,8.33,1,12-.32,4.93-1.79,6.77-6.38,5.38-11.27h0c1,.09,1.92.14,2.81.15,1,0,2,0,2.74,0a23,23,0,0,0,8-1.21C358.47,327.84,360.72,323.36,359.29,317.15Z" style="fill: rgb(90, 109, 117); transform-origin: 312.961px 310.823px;" id="ellv9ctp12eue" class="animable"></path><g id="elwax1gtt7j1"><path d="M359.29,317.15c-1-4.29-9.26-13.9-17.31-20.65s-20.89-18.07-20.89-18.07h0l-51.58,3.08c-3.14,4.63-4.22,13.55-2.44,19.3,2.41,7.79,4.68,12.53,18.91,22.22a118.5,118.5,0,0,0,23.43,12.34c6.78,2.65,10.88,6.89,12.43,7.21,3.86.8,8.33,1,12-.32,4.93-1.79,6.77-6.38,5.38-11.27h0c1,.09,1.92.14,2.81.15,1,0,2,0,2.74,0a23,23,0,0,0,8-1.21C358.47,327.84,360.72,323.36,359.29,317.15Z" style="opacity: 0.5; transform-origin: 312.961px 310.823px;" class="animable"></path></g><g id="el6i8xvbxmsy9"><path d="M327.77,288.29c-1.56,1.89-2.41,2.91-4.93,3.61-2,.55-4.52.6-5.3,2.48-.84,2,1.39,4,3.47,4.74s4.59,1.15,5.64,3.09a15.57,15.57,0,0,1,.78,2.27A6,6,0,0,0,338,306a23.08,23.08,0,0,1,1.61-2.38c2-2.05,5.36-1.42,8-.36a13.67,13.67,0,0,0,2.32.75A96.73,96.73,0,0,0,342,296.5c-3.45-2.9-7.76-6.62-11.58-9.93A5.21,5.21,0,0,0,327.77,288.29Z" style="opacity: 0.05; transform-origin: 333.644px 297.55px;" class="animable"></path></g><g id="elvkiq48o2zng"><path d="M287.8,305.12c.09,3.41,3.27,6.16,6.64,6.67s6.77-.78,9.68-2.55a10.29,10.29,0,0,0,3.09-2.62,4.51,4.51,0,0,0,.81-3.85,5.53,5.53,0,0,0-2.47-2.85,13.72,13.72,0,0,0-5.49-2.06,37.12,37.12,0,0,1-3.81-.52c-3.56-.92-6.49-2.66-10.21-3-2.4-.26-7.39,1-5,4.66,1.51,2.31,5.93,1.81,6.63,4.49A7.23,7.23,0,0,1,287.8,305.12Z" style="opacity: 0.15; transform-origin: 294.281px 303.105px;" class="animable"></path></g><g id="elesg40vexs6r"><path d="M299.9,327.26c.46,1.29,2.14,1.59,3.51,1.63,4.67.12,11.44-2.38,14.78,2.24.81,1.11,1.29,2.59,2.56,3.12a2.9,2.9,0,0,0,3-.76,6.14,6.14,0,0,0,1.49-2.91,10.77,10.77,0,0,0-.22-6.62,7.11,7.11,0,0,0-4.81-4.36c-1.35-.3-2.89-.17-4-1-2.46-2,.2-5.1-2.78-6.75-3.75-2.09-13.89.24-13,5.86a4.85,4.85,0,0,0,.23.93c.37,1.06,1.22,2,1.24,3.09C302,323.73,299.23,325.33,299.9,327.26Z" style="opacity: 0.05; transform-origin: 312.726px 322.743px;" class="animable"></path></g><g id="el5nljj50yhll"><path d="M337,332.62c-1.72-.48-5.77.08-7,1.44s-.87,3.28-1.54,4.87a5.65,5.65,0,0,1-3.66,3,14.84,14.84,0,0,1-4.84.38c-1.25-.05-2.66-.08-3.53.81a2.77,2.77,0,0,0-.35,3c7,.28,14-1,19.41-4.61a8.23,8.23,0,0,0,4.23-7A5.18,5.18,0,0,0,337,332.62Z" style="opacity: 0.05; transform-origin: 327.756px 339.304px;" class="animable"></path></g><g id="elvoyowk1od19"><path d="M275,307.59c2.38-1.58,2.47-5,2-7.86s-1.29-5.92.14-8.4c1.31-2.26,4.29-3.65,4.46-6.26.11-1.69-1.08-3.14-2.48-4.16l-10.19.6c-3.14,4.63-4.22,13.55-2.44,19.3a36.66,36.66,0,0,0,2.72,6.88c.24.1.48.2.73.28A6.09,6.09,0,0,0,275,307.59Z" style="opacity: 0.05; transform-origin: 273.62px 294.63px;" class="animable"></path></g><g id="el2vfqrq1wzwm"><path d="M317.69,280.16a29.68,29.68,0,0,0-16.89,2.17c-1.21.55-2.7.32-3.51,1.55-4,6.11,5.65,10.88,10.4,10.69a5.41,5.41,0,0,0,2.51-.61c2-1.13,2.58-4,4.74-4.74,1.35-.43,2.88.19,4.22-.29,1.5-.53,2.22-2.23,2.48-3.79a4.53,4.53,0,0,0-.42-3.23A5,5,0,0,0,317.69,280.16Z" style="opacity: 0.1; transform-origin: 309.055px 287.171px;" class="animable"></path></g><g id="el43qkxnelkbi"><path d="M358.84,317.79c0-.21-.08-.42-.13-.64-.52-2.29-3.13-6.1-6.67-10.18a6.69,6.69,0,0,1-2.87,1,7.83,7.83,0,0,0-3.65.64,3.25,3.25,0,0,0-.89,4.55c1.32,1.74,4.37,2.09,4.74,4.23.11.65-.08,1.32,0,2a3,3,0,0,0,1.14,1.67,4.86,4.86,0,0,0,5.6.39A9.72,9.72,0,0,0,358.84,317.79Z" style="opacity: 0.05; transform-origin: 351.45px 314.564px;" class="animable"></path></g><g id="ellg5hshiiq8k"><path d="M292.85,329.13a6,6,0,0,0,3.13-1c2-1.49,2.14-4.55,1-6.76a4.46,4.46,0,0,0-2.59-2.42c-1.18-.34-2.45.05-3.64-.2a3.57,3.57,0,0,1-2.63-2.32c-.34-1-.22-2.11-.61-3.08a4.6,4.6,0,0,0-3-2.44c-2.36-.75-5.75-.65-7.65,1-1.51,1.32-2.58,3.39-2.06,5.33a7.78,7.78,0,0,0,2.52,3.43C281.83,324.85,286,329.78,292.85,329.13Z" style="opacity: 0.05; transform-origin: 286.182px 319.825px;" class="animable"></path></g><g id="elmwa7icdffxi"><path d="M353.79,329.54a6,6,0,0,0-.08-.61c-.57-2.9-3.3-4.85-6-6.09-2-.92-4.48-2-4.77-4.22-.08-.59,0-1.2-.08-1.79a4,4,0,0,0-2.64-2.72c-2.71-1.11-6.58-1.2-7.59,1.89-1.67,5.1,2.84,7,4.61,10.81.47,1,.87,2.1,1.38,3.11a12,12,0,0,0,.63,1.1v0h0c1,.09,1.92.14,2.81.15,1,0,2,0,2.74,0a23,23,0,0,0,8-1.21C353.14,329.82,353.47,329.68,353.79,329.54Z" style="opacity: 0.05; transform-origin: 343.028px 322.292px;" class="animable"></path></g><g id="elj1to8im09g"><path d="M290.63,338.52a47.58,47.58,0,0,0,16.54,6.59c1.71-.53,3.5-1.18,4.58-2.61s1-3.91-.66-4.68c-1.81-.86-3.73.8-5.64,1.38a5.43,5.43,0,0,1-5.05-1.05,20.79,20.79,0,0,1-2.08-2.41c-2.06-2.36-11.49-5.66-13.34-1.69A50.83,50.83,0,0,0,290.63,338.52Z" style="opacity: 0.05; transform-origin: 298.723px 338.655px;" class="animable"></path></g><g id="elhyd1ocw8tfm"><path d="M342.07,331.14c-.89,0-1.85-.06-2.81-.15C334.2,320.2,311,302,309.53,300.79l-.07-.07c.05-.07.11-.11.17-.18L310.7,299h0a41.19,41.19,0,0,1,3.65-6.17A40,40,0,0,1,311.9,300c3.41,3.05,16.22,13.86,20.05,17.49C336,321.32,340.13,325.74,342.07,331.14Z" style="opacity: 0.2; transform-origin: 325.765px 311.985px;" class="animable"></path></g><path d="M314.64,215.25a31.24,31.24,0,0,1,10.15,12.89c3.52,7.68,3.33,14.13-3.28,22.86,0,2.07-3.43,13.85-3.43,13.85s3.06,12.59,3,13.59c0,0-3.56,10.36-21.62,11.83-17.13,1.39-24.8-1.82-31.1-7.21,3.78-10.74,11.56-21.87,11.56-21.87-.6-11.73-4.48-26.87-3.36-31.15,1.39-5.32,10.29-11.13,12.49-11.34L304.3,216Z" style="fill: rgb(55, 71, 79); transform-origin: 297.711px 252.922px;" id="elgo9qccyqivc" class="animable"></path><path d="M276.89,280c-1.15-5.17,4.73-15.33,4.73-15.33l5.27,4.7c-2.82-6.07-3.73-13-3.07-20.6,0,0,26.65,8.33,36.2,9.09a46.48,46.48,0,0,0,1.49-6.86c.09-.11.16-.22.24-.33l-6-5.35-25.65-15.58-12-2.86a9.93,9.93,0,0,0-1.6,3.16c-1.12,4.28,2.76,19.42,3.36,31.15,0,0-7.78,11.13-11.56,21.87,6.3,5.39,14,8.6,31.1,7.21C299.46,290.27,278,285.16,276.89,280Z" style="fill: rgb(38, 50, 56); transform-origin: 295.025px 258.737px;" id="elpgd3f6vvbk" class="animable"></path><path d="M309.28,210.28l-2,.12a23,23,0,0,1-24.33-21.6h0a23,23,0,0,1,21.65-24.34l2-.11A23,23,0,0,1,330.88,186h0A23,23,0,0,1,309.28,210.28Z" style="fill: rgb(38, 50, 56); transform-origin: 306.913px 187.377px;" id="el6wd2mn6s18p" class="animable"></path><path d="M270.31,221.87h0a16.28,16.28,0,0,0,15.32-17.18l-1.4-24.49h0a16.28,16.28,0,0,0-15.32,17.18Z" style="fill: rgb(38, 50, 56); transform-origin: 277.27px 201.035px;" id="el2uciptnnu5t" class="animable"></path><path d="M285.57,179.73a3.63,3.63,0,0,1-5.06-5.22Z" style="fill: rgb(38, 50, 56); transform-origin: 282.488px 177.632px;" id="elblm24nyp7nq" class="animable"></path><path d="M320.34,175.14c2.51,1.68,8.44,8.57,7.37,22.26-.9,11.6-4.83,14.27-6.76,15s-5.56,0-9.07-.76l-.29,5.27s2.85,3,3.05,5c.33,3.2-5.46,3.49-10.08,1.62a17.37,17.37,0,0,1-7.64-6.05l.85-16s-3.32,2.17-6.11.1c-3.79-2.8-3.85-7.78-1.45-10s7.27-1.18,8,2.06c0,0,4.75,1.49,12.51-2.24S319.59,179.62,320.34,175.14Z" style="fill: rgb(177, 102, 104); transform-origin: 308.208px 199.915px;" id="elmexe2tt5pq" class="animable"></path><path d="M312.5,189.15l-3.13,1.72a1.87,1.87,0,0,1,.74-2.49A1.73,1.73,0,0,1,312.5,189.15Z" style="fill: rgb(38, 50, 56); transform-origin: 310.83px 189.519px;" id="el4ygbfpll5fn" class="animable"></path><path d="M314.75,203.64l3.33,1.27a1.75,1.75,0,0,1-2.27,1.1A1.87,1.87,0,0,1,314.75,203.64Z" style="fill: rgb(154, 74, 77); transform-origin: 316.359px 204.879px;" id="elmlt56vooj9" class="animable"></path><path d="M326.26,193.33a1.47,1.47,0,1,1-1.46-1.53A1.5,1.5,0,0,1,326.26,193.33Z" style="fill: rgb(38, 50, 56); transform-origin: 324.791px 193.27px;" id="elbn3oz72xpih" class="animable"></path><path d="M314.68,194a1.48,1.48,0,0,1-1.47,1.5,1.52,1.52,0,1,1,1.47-1.5Z" style="fill: rgb(38, 50, 56); transform-origin: 313.16px 193.981px;" id="el4ac8l5u0qlp" class="animable"></path><polygon points="319.41 192.12 319.16 200.93 323.87 199.75 319.41 192.12" style="fill: rgb(154, 74, 77); transform-origin: 321.515px 196.525px;" id="ellp4ccr0yy9i" class="animable"></polygon><path d="M311.88,211.63c-2.94-.5-8.76-2.62-10-4.68,0,0,0,1.36,1.81,3.31s8,3.63,8,3.63Z" style="fill: rgb(154, 74, 77); transform-origin: 306.88px 210.42px;" id="eltlyn7qw612" class="animable"></path><path d="M318.54,174s2.09,9.08-1.45,17.26c0,0,11.17,1.31,12.25-7.13,0,0-.16-7-4.89-11.41Z" style="fill: rgb(38, 50, 56); transform-origin: 323.215px 182.027px;" id="el7g37yygizx" class="animable"></path><path d="M289.05,218.7c-8.23,1.15-13.38,5.91-13.17,12.45s7.38,10.45,14.86,14.16c9.72,4.83,29.71,11.65,35.17,11.93s27.83-32.12,27.83-32.12l-12.12-4.74L323.33,239.9,299.09,229S294.44,221.85,289.05,218.7Z" style="fill: rgb(177, 102, 104); transform-origin: 314.807px 237.971px;" id="elr0i5ytzidmc" class="animable"></path><path d="M360.05,194.06a3.13,3.13,0,0,0-3.17.3,10,10,0,0,0-4.49,7.79,3.18,3.18,0,0,0,1.26,2.87c.27.16,2,1.12,2.29,1.27a3.18,3.18,0,0,0,3.18-.31,10,10,0,0,0,4.49-7.79,3.15,3.15,0,0,0-1.29-2.88C362.06,195.15,360.31,194.2,360.05,194.06Z" style="fill: rgb(69, 90, 100); transform-origin: 358px 200.171px;" id="elshrhu4i87qg" class="animable"></path><path d="M354.62,203.38c0,2.87,2,4,4.5,2.6a10,10,0,0,0,4.49-7.79c0-2.86-2-4-4.49-2.59A9.92,9.92,0,0,0,354.62,203.38Z" style="fill: rgb(55, 71, 79); transform-origin: 359.115px 200.788px;" id="elv416jvtpk4" class="animable"></path><path d="M387.54,205.61l-25.89-9.41h0a1.22,1.22,0,0,0-.53-.11,3.07,3.07,0,0,0-1.45.46,8.88,8.88,0,0,0-3.94,6.83c0,.53.09,1.64.85,2l23.15,13.84Z" style="fill: rgb(90, 109, 117); transform-origin: 371.635px 207.655px;" id="elsqwab5jfby" class="animable"></path><g id="elfuy81u4t0z"><path d="M387.54,205.61l-25.89-9.41h0a1.22,1.22,0,0,0-.53-.11,3.07,3.07,0,0,0-1.45.46,8.88,8.88,0,0,0-3.94,6.83c0,.53.09,1.64.85,2l23.15,13.84Z" style="opacity: 0.5; transform-origin: 371.635px 207.655px;" class="animable"></path></g><path d="M385.19,202.42c-1.22-.71-2.89-.61-4.75.46a14.86,14.86,0,0,0-6.73,11.65c0,2.11.73,3.59,1.9,4.31.4.24,3,1.67,3.42,1.89,1.21.7,2.89.61,4.75-.46a14.88,14.88,0,0,0,6.73-11.66c0-2.12-.73-3.61-1.93-4.32C388.2,204.06,385.57,202.64,385.19,202.42Z" style="fill: rgb(69, 90, 100); transform-origin: 382.11px 211.573px;" id="el20eeda1rwxx" class="animable"></path><path d="M377.06,216.38c0,4.29,3,6,6.72,3.89a14.88,14.88,0,0,0,6.73-11.66c0-4.29-3-6-6.73-3.88A14.87,14.87,0,0,0,377.06,216.38Z" style="fill: rgb(55, 71, 79); transform-origin: 383.785px 212.497px;" id="eltw35vpt52w8" class="animable"></path><path d="M380.78,219.53c-1.87,0-2.07-2.2-2.07-3.15a13.27,13.27,0,0,1,5.9-10.22,4.61,4.61,0,0,1,2.18-.69c1.86,0,2.07,2.2,2.07,3.14a13.28,13.28,0,0,1-5.9,10.22,4.52,4.52,0,0,1-2.18.7Z" style="fill: rgb(38, 50, 56); transform-origin: 383.785px 212.5px;" id="el7yjyub4kamo" class="animable"></path><path d="M386.65,206.4a6.79,6.79,0,0,0-.07-.92,4.83,4.83,0,0,0-2,.68,13.27,13.27,0,0,0-5.9,10.22,6.79,6.79,0,0,0,.07.92,4.69,4.69,0,0,0,2-.68A13.24,13.24,0,0,0,386.65,206.4Z" style="fill: rgb(90, 109, 117); transform-origin: 382.665px 211.39px;" id="elutz84ovuuq" class="animable"></path><g id="eld5rank9im38"><path d="M386.65,206.4a6.79,6.79,0,0,0-.07-.92,4.83,4.83,0,0,0-2,.68,13.27,13.27,0,0,0-5.9,10.22,6.79,6.79,0,0,0,.07.92,4.69,4.69,0,0,0,2-.68A13.24,13.24,0,0,0,386.65,206.4Z" style="opacity: 0.3; transform-origin: 382.665px 211.39px;" class="animable"></path></g><path d="M382.88,208.24c1.26-1.53,2.89-2,3.15-1.47s-.54,6.08-5.87,9.32a18.77,18.77,0,0,0,4.28-5.62C385.26,208.63,384.51,207.13,382.88,208.24Z" style="fill: rgb(224, 224, 224); transform-origin: 383.116px 211.325px;" id="elwqq72d2xv0f" class="animable"></path><path d="M348.84,200.53a3.13,3.13,0,0,0-3.17.31,9.92,9.92,0,0,0-4.5,7.78,3.19,3.19,0,0,0,1.27,2.88c.27.16,2,1.11,2.28,1.26a3.15,3.15,0,0,0,3.18-.31,9.94,9.94,0,0,0,4.5-7.78,3.19,3.19,0,0,0-1.29-2.89Z" style="fill: rgb(69, 90, 100); transform-origin: 346.785px 206.645px;" id="el83o3nghqxpr" class="animable"></path><path d="M343.41,209.86c0,2.86,2,4,4.49,2.59a9.94,9.94,0,0,0,4.5-7.78c0-2.87-2-4-4.5-2.6A9.93,9.93,0,0,0,343.41,209.86Z" style="fill: rgb(55, 71, 79); transform-origin: 347.905px 207.262px;" id="el251tlmpn96v" class="animable"></path><path d="M371.84,214.68l-21.3-12-.07,0,0,0h0a1.17,1.17,0,0,0-.52-.11,3,3,0,0,0-1.46.47,8.87,8.87,0,0,0-3.94,6.83,2.49,2.49,0,0,0,.64,1.86L364,228.28Z" style="fill: rgb(90, 109, 117); transform-origin: 358.192px 215.425px;" id="elnrttww814cd" class="animable"></path><g id="ela8c16vy7jd"><path d="M371.84,214.68l-21.3-12-.07,0,0,0h0a1.17,1.17,0,0,0-.52-.11,3,3,0,0,0-1.46.47,8.87,8.87,0,0,0-3.94,6.83,2.49,2.49,0,0,0,.64,1.86L364,228.28Z" style="opacity: 0.5; transform-origin: 358.192px 215.425px;" class="animable"></path></g><path d="M371.57,214.27a4,4,0,0,1-.85-2.71,10.53,10.53,0,0,1,1.85-5.53l-9,5.17a4,4,0,0,1,1.33-.4l6.91,3.88Z" style="fill: rgb(38, 50, 56); transform-origin: 368.07px 210.355px;" id="elcrmyetcmh5d" class="animable"></path><path d="M369.49,211.48c-1.22-.7-2.89-.61-4.75.47A14.85,14.85,0,0,0,358,223.6c0,2.1.72,3.58,1.9,4.3.4.24,3,1.67,3.42,1.89,1.21.71,2.89.61,4.75-.46a14.86,14.86,0,0,0,6.73-11.65c0-2.12-.73-3.61-1.93-4.32C372.49,213.12,369.87,211.7,369.49,211.48Z" style="fill: rgb(69, 90, 100); transform-origin: 366.4px 220.637px;" id="el8jcqrut8dy" class="animable"></path><path d="M361.36,225.45c0,4.29,3,6,6.72,3.88a14.86,14.86,0,0,0,6.73-11.65c0-4.29-3-6-6.73-3.89A14.9,14.9,0,0,0,361.36,225.45Z" style="fill: rgb(55, 71, 79); transform-origin: 368.085px 221.563px;" id="elz7orrct7uoa" class="animable"></path><path d="M365.08,228.59c-1.87,0-2.07-2.2-2.07-3.14a13.24,13.24,0,0,1,5.9-10.22,4.49,4.49,0,0,1,2.18-.7c1.86,0,2.07,2.2,2.07,3.15a13.3,13.3,0,0,1-5.9,10.22,4.61,4.61,0,0,1-2.18.69Z" style="fill: rgb(38, 50, 56); transform-origin: 368.085px 221.56px;" id="elhgpcxvqme4n" class="animable"></path><path d="M371,215.47a6.79,6.79,0,0,0-.07-.92,4.69,4.69,0,0,0-2,.68,13.24,13.24,0,0,0-5.9,10.22,6.79,6.79,0,0,0,.07.92,4.83,4.83,0,0,0,2-.68A13.27,13.27,0,0,0,371,215.47Z" style="fill: rgb(90, 109, 117); transform-origin: 367.015px 220.46px;" id="elthz06lyhrwe" class="animable"></path><g id="el53le2lvc3v3"><path d="M371,215.47a6.79,6.79,0,0,0-.07-.92,4.69,4.69,0,0,0-2,.68,13.24,13.24,0,0,0-5.9,10.22,6.79,6.79,0,0,0,.07.92,4.83,4.83,0,0,0,2-.68A13.27,13.27,0,0,0,371,215.47Z" style="opacity: 0.3; transform-origin: 367.015px 220.46px;" class="animable"></path></g><path d="M367.18,217.3c1.26-1.53,2.89-2,3.15-1.47s-.54,6.08-5.87,9.33a18.73,18.73,0,0,0,4.28-5.63C369.56,217.7,368.81,216.19,367.18,217.3Z" style="fill: rgb(224, 224, 224); transform-origin: 367.416px 220.39px;" id="elux0254gy79l" class="animable"></path><polygon points="363.6 200.79 372.57 206.02 363.6 211.2 354.58 206 363.6 200.79" style="fill: rgb(55, 71, 79); transform-origin: 363.575px 205.995px;" id="el190hzovtv74" class="animable"></polygon><path d="M341.62,220.38c3.91-4.07,2.33-8.81,3.93-12.19s8.35-6.21,11.23-5.53,11.76,6.13,10.26,8.43a6.14,6.14,0,0,0-1.09.28l-1-.53a11.08,11.08,0,0,0-6.23,4.06c-2.24,3.26-2.25,3.89-2.3,5.09s1.57,3,1.57,3c-1.2,1.15-3.3,1-5.16,3.35-2,2.46-3.19,4.23-3.19,4.23Z" style="fill: rgb(177, 102, 104); transform-origin: 354.415px 216.564px;" id="el1xpta4xd2h1" class="animable"></path></g><path d="M223.34,253.58v69.94l88.89,51.32,20.51-58.09Zm29.08,70.27a4.78,4.78,0,0,1-5.8-3.43l-11.77-36.58a4.5,4.5,0,1,1,8.51-2.74l11.78,36.58A4.78,4.78,0,0,1,252.42,323.85Zm25.37,13.73a4.79,4.79,0,0,1-5.81-3.43l-11.77-36.57a4.51,4.51,0,1,1,8.52-2.75l11.77,36.58A4.77,4.77,0,0,1,277.79,337.58Zm25.37,13.74a4.8,4.8,0,0,1-5.81-3.44l-11.77-36.57a4.79,4.79,0,0,1,2.71-6.18c2.35-.76,4.95.78,5.81,3.44l11.77,36.57A4.8,4.8,0,0,1,303.16,351.32Z" style="fill: rgb(90, 109, 117); transform-origin: 278.04px 314.21px;" id="el0z2pvgiensy" class="animable"></path><g id="eldkk8116qr7q"><path d="M223.34,253.58v69.94l88.89,51.32,20.51-58.09Zm29.08,70.27a4.78,4.78,0,0,1-5.8-3.43l-11.77-36.58a4.5,4.5,0,1,1,8.51-2.74l11.78,36.58A4.78,4.78,0,0,1,252.42,323.85Zm25.37,13.73a4.79,4.79,0,0,1-5.81-3.43l-11.77-36.57a4.51,4.51,0,1,1,8.52-2.75l11.77,36.58A4.77,4.77,0,0,1,277.79,337.58Zm25.37,13.74a4.8,4.8,0,0,1-5.81-3.44l-11.77-36.57a4.79,4.79,0,0,1,2.71-6.18c2.35-.76,4.95.78,5.81,3.44l11.77,36.57A4.8,4.8,0,0,1,303.16,351.32Z" style="fill: rgb(255, 255, 255); opacity: 0.65; transform-origin: 278.04px 314.21px;" class="animable"></path></g><polygon points="332.75 316.75 387.45 285.18 366.93 343.27 312.23 374.85 332.75 316.75" style="fill: rgb(90, 109, 117); transform-origin: 349.84px 330.015px;" id="elynbajo4639i" class="animable"></polygon><g id="el67vila206rg"><polygon points="332.75 316.75 387.45 285.18 366.93 343.27 312.23 374.85 332.75 316.75" style="fill: rgb(255, 255, 255); opacity: 0.3; transform-origin: 349.84px 330.015px;" class="animable"></polygon></g></g><g id="freepik--front-arm--inject-1--inject-68" class="animable" style="transform-origin: 206.654px 176.689px;"><path d="M179.41,126.88c-4.36,0-13.66,6.91-12.34,19.24.69,6.44,15.44,34.09,19.22,40.33s34.29,25.13,37,26.91,3,4.39,4.89,5.85l2.3-1.33a3.42,3.42,0,0,1,1.94,4.88L230,224.17s3.45,2.77,6.48,2.37c2.87-.39,9-3.13,10.21-5.7.54-1.18.88-7.1.18-8.58-2.12-4.54-15.66-7.82-15.66-7.82L202.6,177Z" style="fill: rgb(255, 168, 167); transform-origin: 207.104px 176.73px;" id="el02ws84ahzpa" class="animable"></path><path d="M181.77,126.88s-7.37-1.08-12,4.59c-4.18,5.13-4.69,12.91-2.3,19.85s14.23,30.89,16.39,35.13,25.91,18.2,25.91,18.2,3-9.09,9.82-11.33l-16.12-16.8-16.65-35.74S187,132.51,181.77,126.88Z" style="fill: rgb(38, 50, 56); transform-origin: 192.816px 165.724px;" id="eln3r5peygl7" class="animable"></path></g></g></g><g id="freepik--speach-bubble--inject-1--inject-68" class="animable animator-active" style="transform-origin: 280.168px 64.3917px;"><g id="freepik--speach-bubble--inject-1--inject-68" class="animable" style="transform-origin: 280.168px 64.3917px;"><path d="M300.93,24.35l-37,21.34a3.26,3.26,0,0,0-1.48,2.56V98.9a3.22,3.22,0,0,0,1.49,2.55l5.3,3a3.28,3.28,0,0,0,3,0l37-21.34a3.26,3.26,0,0,0,1.48-2.56V29.85a3.19,3.19,0,0,0-1.49-2.54l-5.3-3A3.31,3.31,0,0,0,300.93,24.35Z" style="fill: rgb(90, 109, 117); transform-origin: 286.585px 64.3917px;" id="el3q7qc16ztpt" class="animable"></path><path d="M270.68,103.55V52.9a3.29,3.29,0,0,1,1.48-2.56L309.2,29c.82-.47,1.48-.09,1.48.85V80.51a3.26,3.26,0,0,1-1.48,2.56l-37,21.34C271.35,104.88,270.68,104.5,270.68,103.55Z" style="fill: rgb(90, 109, 117); transform-origin: 290.68px 66.7049px;" id="ely857x6xnhwc" class="animable"></path><g id="elthgume49e6s"><path d="M272.16,104.41a3.44,3.44,0,0,1-3,0l-5.29-3a3.22,3.22,0,0,1-1.49-2.54V48.25a3,3,0,0,1,.47-1.51l8.24,4.7a3,3,0,0,0-.44,1.46v50.65C270.68,104.41,271.29,104.91,272.16,104.41Z" style="opacity: 0.2; transform-origin: 267.27px 75.7471px;" class="animable"></path></g><g id="elwj8pe3qyqp"><path d="M310.66,29.58c-.11-.74-.72-1-1.46-.58l-37,21.34a3.09,3.09,0,0,0-1.05,1.1l-8.25-4.7a2.86,2.86,0,0,1,1-1.05l37-21.34a3.3,3.3,0,0,1,3,0l5.29,3A3.25,3.25,0,0,1,310.66,29.58Z" style="fill: rgb(255, 255, 255); opacity: 0.4; transform-origin: 286.78px 37.7147px;" class="animable"></path></g><path d="M258.35,85.81c-.93-.55-7.88-4.47-8.11-4.6A1.38,1.38,0,0,1,250,79.1l12.59-15.7L270.68,68,258.1,83.74A1.4,1.4,0,0,0,258.35,85.81Z" style="fill: rgb(90, 109, 117); transform-origin: 260.148px 74.605px;" id="el8boo2hnq91a" class="animable"></path><g id="eldg52zhpss5s"><path d="M258.35,85.81c-.93-.55-7.88-4.47-8.11-4.6A1.38,1.38,0,0,1,250,79.1l12.59-15.7L270.68,68,258.1,83.74A1.4,1.4,0,0,0,258.35,85.81Z" style="fill: rgb(255, 255, 255); opacity: 0.4; transform-origin: 260.148px 74.605px;" class="animable"></path></g><path d="M270.68,68,258.1,83.74A1.33,1.33,0,0,0,259,86l11.73,1.27Z" style="fill: rgb(90, 109, 117); transform-origin: 264.225px 77.635px;" id="elnor1g7ynfom" class="animable"></path></g><path d="M286.7,56.67c.05.89.07,1.68.07,2.38s0,1.49-.07,2.36A12.78,12.78,0,0,1,285.17,67a9.61,9.61,0,0,1-3.6,3.81c-1.48.85-2.68,1-3.6.34s-1.44-1.88-1.54-3.77c0-.82-.07-1.58-.07-2.28s0-1.52.07-2.46a12.71,12.71,0,0,1,1.46-5.55,9.39,9.39,0,0,1,3.68-3.86c1.56-.9,2.79-1,3.67-.39S286.62,54.73,286.7,56.67Zm9.37-9.12a6.52,6.52,0,0,1,.46-.95,1.86,1.86,0,0,1,.69-.64l3.29-1.91c.24-.13.42-.15.56,0a.69.69,0,0,1,.21.59,1,1,0,0,1,0,.26,2.58,2.58,0,0,1-.09.35L285.48,86a5.89,5.89,0,0,1-.46.94,1.83,1.83,0,0,1-.68.64L281,89.48c-.23.13-.42.15-.55,0a.69.69,0,0,1-.21-.59,1.48,1.48,0,0,1,0-.26,2.68,2.68,0,0,1,.1-.35Zm-15.65,18a3.12,3.12,0,0,0,.3,1.34c.17.3.45.34.85.11a1.93,1.93,0,0,0,.84-1.08,6.13,6.13,0,0,0,.3-1.69q.14-3.11,0-5.83a3.12,3.12,0,0,0-.3-1.34c-.17-.3-.45-.34-.84-.11a1.91,1.91,0,0,0-.85,1.08,6.13,6.13,0,0,0-.3,1.69C280.33,61.67,280.33,63.62,280.42,65.58Zm25.38-.67c0,.88.06,1.68.06,2.38s0,1.48-.06,2.35a12.85,12.85,0,0,1-1.54,5.55,9.48,9.48,0,0,1-3.6,3.81c-1.48.86-2.68,1-3.6.35s-1.43-1.88-1.54-3.78q-.06-1.23-.06-2.28c0-.7,0-1.52.06-2.45A12.85,12.85,0,0,1,297,65.28a9.49,9.49,0,0,1,3.68-3.85q2.34-1.36,3.68-.39C305.23,61.68,305.71,63,305.8,64.91Zm-6.28,8.91a3.3,3.3,0,0,0,.29,1.34c.17.3.45.34.85.11a1.88,1.88,0,0,0,.84-1.09,6,6,0,0,0,.3-1.68c.09-2.07.09-4,0-5.84a3.12,3.12,0,0,0-.3-1.34c-.16-.3-.45-.34-.84-.11a1.9,1.9,0,0,0-.85,1.09,6.39,6.39,0,0,0-.29,1.68C299.43,69.91,299.43,71.85,299.52,73.82Z" style="fill: rgb(250, 250, 250); transform-origin: 291.11px 66.765px;" id="elj93umt2elbm" class="animable"></path></g><defs>     <filter id="active" height="200%">         <feMorphology in="SourceAlpha" result="DILATED" operator="dilate" radius="2"></feMorphology>                <feFlood flood-color="#32DFEC" flood-opacity="1" result="PINK"></feFlood>        <feComposite in="PINK" in2="DILATED" operator="in" result="OUTLINE"></feComposite>        <feMerge>            <feMergeNode in="OUTLINE"></feMergeNode>            <feMergeNode in="SourceGraphic"></feMergeNode>        </feMerge>    </filter>    <filter id="hover" height="200%">        <feMorphology in="SourceAlpha" result="DILATED" operator="dilate" radius="2"></feMorphology>                <feFlood flood-color="#ff0000" flood-opacity="0.5" result="PINK"></feFlood>        <feComposite in="PINK" in2="DILATED" operator="in" result="OUTLINE"></feComposite>        <feMerge>            <feMergeNode in="OUTLINE"></feMergeNode>            <feMergeNode in="SourceGraphic"></feMergeNode>        </feMerge>            <feColorMatrix type="matrix" values="0   0   0   0   0                0   1   0   0   0                0   0   0   0   0                0   0   0   1   0 "></feColorMatrix>    </filter></defs></svg>